<svg xmlns="http://www.w3.org/2000/svg" width="70" height="70" viewBox="0 0 70 70">
  <g id="Grupo_194" data-name="Grupo 194" transform="translate(-159 -110)">
    <circle id="Elipse_16" data-name="Elipse 16" cx="35" cy="35" r="35" transform="translate(159 110)" fill="#0482a6"/>
    <g id="Grupo_120" data-name="Grupo 120" transform="translate(532.736 43.568)">
      <path id="Trazado_77" data-name="Trazado 77" d="M-317.377,93.829a2.38,2.38,0,0,1,2.457,1.993,2.108,2.108,0,0,1-.279,1.247c-4.072,7.039-12.675,11.027-22.7,11.027-3.239,0-5.391-.437-7.149-1.435-1.37-.809-2.065-1.744-2.131-2.616a2.03,2.03,0,0,1,1.8-2.231,2.01,2.01,0,0,1,.2-.011c.933,0,1.212.375,2.476,1.433a4.55,4.55,0,0,0,3.014,1.121c5.419,0,10.168-7.974,9.616-15.2-.172-2.244-1.273-3.614-2.892-3.614-2.617,0-6.788,4.111-9.334,7.476a44.545,44.545,0,0,0-6.281,13.206L-353,121.612c-.59,2.056-1.19,3.177-3.121,3.177a2.643,2.643,0,0,1-2.606-2.3,3.86,3.86,0,0,1,.2-1.5c3.083-11.027,8.325-28.033,11.286-36.567a3.408,3.408,0,0,1,3.284-2.679,2.43,2.43,0,0,1,2.658,2.178h0a5.045,5.045,0,0,1-.647,2.119l-.769,2.181c3.266-3.737,7.268-6.79,10.633-6.79,4.8,0,8.011,2.927,8.386,7.848a18.55,18.55,0,0,1-5.461,14.141c3.749-1.493,7.3-3.923,9.219-7.351C-319.237,94.764-318.561,93.829-317.377,93.829Z" fill="#f1f1f1"/>
    </g>
  </g>
</svg>
