<svg xmlns="http://www.w3.org/2000/svg" width="116.396" height="99.811" viewBox="0 0 116.396 99.811">
  <g id="Grupo_115" data-name="Grupo 115" transform="translate(693.072 1261.04) rotate(98)">
    <g id="Grupo_111" data-name="Grupo 111">
      <line id="Línea_2" data-name="Línea 2" x1="4.319" y2="18.416" transform="translate(-1076.589 827.021)" fill="#0482a6"/>
      <path id="Trazado_67" data-name="Trazado 67" d="M-1076.588,846.477a1.023,1.023,0,0,1-.238-.028,1.04,1.04,0,0,1-.775-1.25l4.319-18.416a1.038,1.038,0,0,1,1.25-.775,1.042,1.042,0,0,1,.775,1.25l-4.319,18.417A1.041,1.041,0,0,1-1076.588,846.477Z" fill="#0482a6"/>
    </g>
    <g id="Grupo_112" data-name="Grupo 112">
      <line id="Línea_3" data-name="Línea 3" x1="2.813" y2="12.811" transform="translate(-1082.37 837.608)" fill="#0482a6"/>
      <path id="Trazado_68" data-name="Trazado 68" d="M-1082.369,851.459a1.014,1.014,0,0,1-.224-.025,1.04,1.04,0,0,1-.793-1.238l2.813-12.811a1.042,1.042,0,0,1,1.239-.793,1.039,1.039,0,0,1,.792,1.239l-2.812,12.811A1.041,1.041,0,0,1-1082.369,851.459Z" fill="#0482a6"/>
    </g>
    <g id="Grupo_114" data-name="Grupo 114">
      <g id="Grupo_113" data-name="Grupo 113">
        <path id="Trazado_69" data-name="Trazado 69" d="M-1080.948,786.985a33.887,33.887,0,0,1,6.243,21.7,2.6,2.6,0,0,1-.039.284,34,34,0,0,1-9.111,21.01c-.535.552-1.083,1.115-1.657,1.649a34.1,34.1,0,0,1-48.139-1.707,34.093,34.093,0,0,1,1.735-48.164h0a34.013,34.013,0,0,1,27.682-8.817c.505.079.969.156,1.4.259a33.2,33.2,0,0,1,10.985,3.916c.051.031.1.063.149.1a33.16,33.16,0,0,1,7.919,6.3A34.587,34.587,0,0,1-1080.948,786.985Zm3.331,21.454a31.015,31.015,0,0,0-8.3-22.928,30.277,30.277,0,0,0-7.344-5.821,1.535,1.535,0,0,1-.161-.106,30.493,30.493,0,0,0-9.989-3.519c-.464-.107-.852-.168-1.243-.231a31.087,31.087,0,0,0-25.272,8.064h0a31.212,31.212,0,0,0-1.587,44.037,31.177,31.177,0,0,0,44.011,1.559c.536-.5,1.047-1.027,1.533-1.528a31.037,31.037,0,0,0,8.315-19.262C-1077.65,808.642-1077.633,808.527-1077.617,808.439Zm2.875.491c0-.03,0-.059.006-.087Q-1074.738,808.888-1074.742,808.93Zm-2.881-.372,0-.062C-1077.621,808.518-1077.622,808.538-1077.623,808.558Z" fill="#0482a6"/>
        <path id="Trazado_70" data-name="Trazado 70" d="M-1080.86,797.378a27.642,27.642,0,0,1,5.092,17.7,2.339,2.339,0,0,1-.039.281,1.461,1.461,0,0,1-1.48,1.25,1.461,1.461,0,0,1-1.426-1.494,1.917,1.917,0,0,1,.033-.288,24.735,24.735,0,0,0-6.625-18.278,24.129,24.129,0,0,0-5.859-4.645,1.452,1.452,0,0,1-.14-.091,24.353,24.353,0,0,0-7.962-2.8c-.384-.089-.694-.137-1-.187a24.8,24.8,0,0,0-20.159,6.438,1.458,1.458,0,0,1-2.064-.074,1.452,1.452,0,0,1,.074-2.064,27.731,27.731,0,0,1,22.571-7.19c.423.067.8.129,1.159.213a27.086,27.086,0,0,1,8.942,3.191c.045.026.087.054.129.083a27.074,27.074,0,0,1,6.45,5.138A28.254,28.254,0,0,1-1080.86,797.378Zm5.068,17.8v0Z" fill="#0482a6"/>
        <path id="Trazado_71" data-name="Trazado 71" d="M-1078.8,760.922c11.595,16.236,11.012,38.416,10.3,42.286a1.46,1.46,0,0,1-1.61,1.186,1.455,1.455,0,0,1-1.286-1.53c.248-4.516-4.555-20.356-16.857-29.268-10.058-7.289-22.424-8.152-36.753-2.568a15.816,15.816,0,0,1-12.31.018,13.605,13.605,0,0,1-7.17-8.02,12.308,12.308,0,0,1,.9-10.44,16.26,16.26,0,0,1,11.272-7.656h0c21.293-4.072,37.75-.517,48.914,10.57A42.116,42.116,0,0,1-1078.8,760.922Zm7.3,29.9c-1.011-9.9-4.36-23.723-13.955-33.248-10.437-10.365-26.017-13.652-46.306-9.772a13.351,13.351,0,0,0-9.279,6.228,9.428,9.428,0,0,0-.7,7.995,10.771,10.771,0,0,0,5.63,6.362,12.923,12.923,0,0,0,10.044-.08c15.315-5.968,28.615-4.984,39.53,2.925C-1079.115,776.607-1074.287,784.229-1071.5,790.82Zm-60.535-44.455-.008-.012Z" fill="#0482a6"/>
        <circle id="Elipse_4" data-name="Elipse 4" cx="4.703" cy="4.703" r="4.703" transform="translate(-1154.262 770.841)" fill="#0482a6"/>
        <circle id="Elipse_5" data-name="Elipse 5" cx="6.132" cy="6.132" r="6.132" transform="translate(-1165.077 758.728)" fill="#0482a6"/>
      </g>
      <path id="Trazado_72" data-name="Trazado 72" d="M-1128.66,765.665a.738.738,0,0,1-.469-.168.739.739,0,0,1-.1-1.039,6.863,6.863,0,0,0,1.132-6.744,6.846,6.846,0,0,0-8.8-4.015.736.736,0,0,1-.949-.433.737.737,0,0,1,.433-.949,8.319,8.319,0,0,1,10.694,4.881,8.341,8.341,0,0,1-1.375,8.2A.737.737,0,0,1-1128.66,765.665Z" fill="#0482a6"/>
    </g>
  </g>
</svg>
