<svg xmlns="http://www.w3.org/2000/svg" xmlns:xlink="http://www.w3.org/1999/xlink" width="94.787" height="91.654" viewBox="0 0 94.787 91.654">
  <defs>
    <clipPath id="clip-path">
      <path id="Trazado_34" data-name="Trazado 34" d="M23.227,3.817A22.56,22.56,0,0,0,3.8,29.073c.074.527.17,1.048.261,1.547a22.418,22.418,0,0,0,4.583,9.739c.034,0,.062.057.091.079a17.874,17.874,0,0,0,13.546,3.784,17.353,17.353,0,0,0,5.2-1.5l.113-.045a17.67,17.67,0,0,0,5-3.5c.215-.187.374-.351.533-.51A17.959,17.959,0,0,0,37.81,24.1a1.059,1.059,0,0,1,2.1-.278,20.084,20.084,0,0,1-5.263,16.3,5.983,5.983,0,0,1-.612.567,19.591,19.591,0,0,1-5.665,3.926l-.1.04A19.557,19.557,0,0,1,22.525,46.3a20.609,20.609,0,0,1-2.629.17,19.829,19.829,0,0,1-4.515-.487,22.35,22.35,0,0,0,13.654,2.521A21.874,21.874,0,0,0,35.55,46.63l.13-.051a22.135,22.135,0,0,0,6.277-4.4c.255-.227.453-.431.657-.635A22.531,22.531,0,0,0,23.227,3.817ZM50.586,22.994A24.6,24.6,0,0,1,44.138,43c-.261.266-.5.5-.742.714a23.868,23.868,0,0,1-6.923,4.821.822.822,0,0,1-.125.051A23.942,23.942,0,0,1,29.306,50.6a24.786,24.786,0,0,1-3.229.21,24.537,24.537,0,0,1-15.4-5.45,1.665,1.665,0,0,1-.147-.142,24.576,24.576,0,0,1-8.543-14.2c-.1-.567-.2-1.1-.272-1.666a24.644,24.644,0,1,1,48.876-6.357Zm9.631,3.156A9.342,9.342,0,0,0,56.041,32.1c-2.912,11.529-9.087,18.945-18.333,22.044a33.739,33.739,0,0,1-17.857.618c6.232,3.569,15.8,7.41,25.443,5.767,10.492-1.79,18.979-9.58,25.228-23.16a9.631,9.631,0,0,0,.232-8.085,6.8,6.8,0,0,0-4.385-3.773,7.818,7.818,0,0,0-6.141.646Zm6.719-2.68a8.912,8.912,0,0,1,5.739,4.952,11.784,11.784,0,0,1-.232,9.858C65.888,52.528,56.874,60.726,45.651,62.64a30.946,30.946,0,0,1-5.127.425c-14.435,0-27.251-9.671-29.233-11.722a1.059,1.059,0,0,1,1.422-1.558c2.555,2.017,13.9,5.83,24.322,2.351,8.5-2.833,14.231-9.773,17-20.56A11.484,11.484,0,0,1,59.2,24.32a9.846,9.846,0,0,1,7.739-.85Z" transform="translate(-1.501 -1.525)" fill="none" stroke="#008bb0" stroke-miterlimit="10" stroke-width="0.5"/>
    </clipPath>
    <clipPath id="clip-path-2">
      <rect id="Rectángulo_26" data-name="Rectángulo 26" width="236.813" height="243.612" transform="translate(0 0)" fill="none" stroke="#008bb0" stroke-miterlimit="10" stroke-width="0.5"/>
    </clipPath>
    <clipPath id="clip-path-3">
      <path id="Trazado_37" data-name="Trazado 37" d="M108.508,23.1a3.4,3.4,0,1,1-3.4-3.4,3.4,3.4,0,0,1,3.4,3.4" transform="translate(-101.71 -19.7)" fill="#0482a6" stroke="#008bb0" stroke-miterlimit="10" stroke-width="0.5"/>
    </clipPath>
    <clipPath id="clip-path-4">
      <rect id="Rectángulo_30" data-name="Rectángulo 30" width="236.813" height="243.612" transform="translate(0 0)" fill="#0482a6" stroke="#008bb0" stroke-miterlimit="10" stroke-width="0.5"/>
    </clipPath>
    <clipPath id="clip-path-5">
      <path id="Trazado_40" data-name="Trazado 40" d="M126.813,20.459a4.447,4.447,0,1,1,0-.023" transform="translate(-117.93 -16)" fill="#0482a6" stroke="#008bb0" stroke-miterlimit="10" stroke-width="0.5"/>
    </clipPath>
  </defs>
  <g id="Grupo_53" data-name="Grupo 53" transform="translate(-707.444 -87.039) rotate(-33)">
    <g id="Capa_2" data-name="Capa 2" transform="translate(524.609 491.786)">
      <g id="Capa_1" data-name="Capa 1" transform="translate(0 0)">
        <g id="Grupo_43" data-name="Grupo 43" transform="translate(0 0)" clip-path="url(#clip-path)">
          <g id="Grupo_42" data-name="Grupo 42" transform="translate(-80.551 -37.406)" clip-path="url(#clip-path-2)">
            <rect id="Rectángulo_25" data-name="Rectángulo 25" width="83.479" height="72.857" transform="translate(74.885 31.726)" fill="#0482a6" stroke="#008bb0" stroke-miterlimit="10" stroke-width="0.5"/>
          </g>
          <rect id="Rectángulo_27" data-name="Rectángulo 27" width="236.813" height="243.612" transform="translate(-80.551 -37.406)" fill="none" stroke="#008bb0" stroke-miterlimit="10" stroke-width="0.5"/>
        </g>
        <path id="Trazado_35" data-name="Trazado 35" d="M23.227,3.817A22.56,22.56,0,0,0,3.8,29.073c.074.527.17,1.048.261,1.547a22.418,22.418,0,0,0,4.583,9.739c.034,0,.062.057.091.079a17.874,17.874,0,0,0,13.546,3.784,17.353,17.353,0,0,0,5.2-1.5l.113-.045a17.67,17.67,0,0,0,5-3.5c.215-.187.374-.351.533-.51A17.959,17.959,0,0,0,37.81,24.1a1.059,1.059,0,0,1,2.1-.278,20.084,20.084,0,0,1-5.263,16.3,5.983,5.983,0,0,1-.612.567,19.591,19.591,0,0,1-5.665,3.926l-.1.04A19.557,19.557,0,0,1,22.525,46.3a20.609,20.609,0,0,1-2.629.17,19.829,19.829,0,0,1-4.515-.487,22.35,22.35,0,0,0,13.654,2.521A21.874,21.874,0,0,0,35.55,46.63l.13-.051a22.135,22.135,0,0,0,6.277-4.4c.255-.227.453-.431.657-.635A22.531,22.531,0,0,0,23.227,3.817ZM50.586,22.994A24.6,24.6,0,0,1,44.138,43c-.261.266-.5.5-.742.714a23.868,23.868,0,0,1-6.923,4.821.822.822,0,0,1-.125.051A23.942,23.942,0,0,1,29.306,50.6a24.786,24.786,0,0,1-3.229.21,24.537,24.537,0,0,1-15.4-5.45,1.665,1.665,0,0,1-.147-.142,24.576,24.576,0,0,1-8.543-14.2c-.1-.567-.2-1.1-.272-1.666a24.644,24.644,0,1,1,48.876-6.357Zm9.631,3.156A9.342,9.342,0,0,0,56.041,32.1c-2.912,11.529-9.087,18.945-18.333,22.044a33.739,33.739,0,0,1-17.857.618c6.232,3.569,15.8,7.41,25.443,5.767,10.492-1.79,18.979-9.58,25.228-23.16a9.631,9.631,0,0,0,.232-8.085,6.8,6.8,0,0,0-4.385-3.773,7.818,7.818,0,0,0-6.141.646Zm6.719-2.68a8.912,8.912,0,0,1,5.739,4.952,11.784,11.784,0,0,1-.232,9.858C65.888,52.528,56.874,60.726,45.651,62.64a30.946,30.946,0,0,1-5.127.425c-14.435,0-27.251-9.671-29.233-11.722a1.059,1.059,0,0,1,1.422-1.558c2.555,2.017,13.9,5.83,24.322,2.351,8.5-2.833,14.231-9.773,17-20.56A11.484,11.484,0,0,1,59.2,24.32a9.846,9.846,0,0,1,7.739-.85Z" transform="translate(-1.501 -1.525)" fill="none" stroke="#008bb0" stroke-miterlimit="10" stroke-width="0.5" fill-rule="evenodd"/>
        <path id="Trazado_36" data-name="Trazado 36" d="M108.508,23.1a3.4,3.4,0,1,1-3.4-3.4,3.4,3.4,0,0,1,3.4,3.4" transform="translate(-44.938 -9.403)" fill="#0482a6" stroke="#707070" stroke-width="0.5" fill-rule="evenodd"/>
        <g id="Grupo_45" data-name="Grupo 45" transform="translate(56.772 10.297)" clip-path="url(#clip-path-3)">
          <rect id="Rectángulo_28" data-name="Rectángulo 28" width="236.813" height="243.612" transform="translate(-137.323 -47.703)" fill="#0482a6" stroke="#707070" stroke-width="0.5"/>
          <g id="Grupo_44" data-name="Grupo 44" transform="translate(-137.323 -47.703)" clip-path="url(#clip-path-4)">
            <rect id="Rectángulo_29" data-name="Rectángulo 29" width="18.135" height="18.135" transform="translate(131.652 42.032)" fill="#0482a6" stroke="#008bb0" stroke-miterlimit="10" stroke-width="0.5"/>
          </g>
          <rect id="Rectángulo_31" data-name="Rectángulo 31" width="236.813" height="243.612" transform="translate(-137.323 -47.703)" fill="none" stroke="#008bb0" stroke-miterlimit="10" stroke-width="0.5"/>
        </g>
        <path id="Trazado_38" data-name="Trazado 38" d="M108.508,23.1a3.4,3.4,0,1,1-3.4-3.4,3.4,3.4,0,0,1,3.4,3.4" transform="translate(-44.938 -9.403)" fill="none" stroke="#008bb0" stroke-miterlimit="10" stroke-width="0.5" fill-rule="evenodd"/>
        <path id="Trazado_39" data-name="Trazado 39" d="M126.813,20.459a4.447,4.447,0,1,1,0-.023" transform="translate(-51.969 -7.799)" fill="#0482a6" stroke="#707070" stroke-width="0.5" fill-rule="evenodd"/>
        <g id="Grupo_47" data-name="Grupo 47" transform="translate(65.961 8.201)" clip-path="url(#clip-path-5)">
          <rect id="Rectángulo_32" data-name="Rectángulo 32" width="236.813" height="243.612" transform="translate(-146.513 -45.606)" fill="#0482a6" stroke="#707070" stroke-width="0.5"/>
          <g id="Grupo_46" data-name="Grupo 46" transform="translate(-146.513 -45.606)" clip-path="url(#clip-path-4)">
            <rect id="Rectángulo_33" data-name="Rectángulo 33" width="20.203" height="20.203" transform="translate(140.859 39.964)" fill="#0482a6" stroke="#008bb0" stroke-miterlimit="10" stroke-width="0.5"/>
          </g>
          <rect id="Rectángulo_35" data-name="Rectángulo 35" width="236.813" height="243.612" transform="translate(-146.513 -45.606)" fill="none" stroke="#008bb0" stroke-miterlimit="10" stroke-width="0.5"/>
        </g>
        <path id="Trazado_41" data-name="Trazado 41" d="M126.813,20.459a4.447,4.447,0,1,1,0-.023" transform="translate(-51.969 -7.799)" fill="none" stroke="#008bb0" stroke-miterlimit="10" stroke-width="0.5" fill-rule="evenodd"/>
      </g>
    </g>
    <path id="Trazado_42" data-name="Trazado 42" d="M-1.072,1.3A8.444,8.444,0,0,0,4.27,2.823,6.145,6.145,0,0,0,8.62,0" transform="translate(583.177 524.598)" fill="none" stroke="#008bb0" stroke-linecap="round" stroke-width="1"/>
  </g>
</svg>
