<svg xmlns="http://www.w3.org/2000/svg" width="384" height="384" viewBox="0 0 384 384">
  <g id="Grupo_171" data-name="Grupo 171" transform="translate(-834 -4991)">
    <circle id="Elipse_14" data-name="Elipse 14" cx="192" cy="192" r="192" transform="translate(834 4991)" fill="#eaf2c7"/>
    <path id="perm_phone_msg_24dp_FILL1_wght400_GRAD0_opsz24" d="M214.931-734.521v-94.931a10.206,10.206,0,0,1,3.033-7.515A10.206,10.206,0,0,1,225.479-840h73.835a10.206,10.206,0,0,1,7.515,3.033,10.206,10.206,0,0,1,3.033,7.515v52.739a10.206,10.206,0,0,1-3.033,7.515,10.206,10.206,0,0,1-7.515,3.032H246.574Zm83.855,84.383q-32.962,0-65.133-14.371a194.845,194.845,0,0,1-58.541-40.741,194.846,194.846,0,0,1-40.741-58.541Q120-795.963,120-828.925a10.733,10.733,0,0,1,3.164-7.911A10.733,10.733,0,0,1,131.075-840h42.719a9.809,9.809,0,0,1,6.592,2.505,9.636,9.636,0,0,1,3.428,5.933l6.856,36.917a18.6,18.6,0,0,1-.264,7.12,11.092,11.092,0,0,1-2.9,5.01l-25.579,25.842a127.555,127.555,0,0,0,12.526,18.854,185.488,185.488,0,0,0,15.954,17.536,185.5,185.5,0,0,0,17.14,15.163,166.718,166.718,0,0,0,18.986,12.789l24.787-24.787a14.769,14.769,0,0,1,6.2-3.56,16.987,16.987,0,0,1,7.515-.659l36.39,7.383a12.2,12.2,0,0,1,6.065,3.824,9.283,9.283,0,0,1,2.373,6.2v42.719A10.733,10.733,0,0,1,306.7-653.3,10.733,10.733,0,0,1,298.786-650.139Z" transform="translate(806 5937)" fill="#889543"/>
  </g>
</svg>
