<svg xmlns="http://www.w3.org/2000/svg" xmlns:xlink="http://www.w3.org/1999/xlink" width="102" height="104" viewBox="0 0 102 104">
  <defs>
    <clipPath id="clip-path">
      <path id="chat_bubble_24dp_5F6368_FILL1_wght400_GRAD0_opsz24" d="M80-827.693v-47.077a5.037,5.037,0,0,1,1.537-3.694A5.037,5.037,0,0,1,85.231-880h41.846a5.037,5.037,0,0,1,3.694,1.536,5.037,5.037,0,0,1,1.537,3.694v31.385a5.037,5.037,0,0,1-1.537,3.694,5.037,5.037,0,0,1-3.694,1.537H90.462Z" transform="translate(242 1785)" fill="#889543"/>
    </clipPath>
  </defs>
  <g id="Grupo_194" data-name="Grupo 194" transform="translate(-297 -875)">
    <ellipse id="Elipse_16" data-name="Elipse 16" cx="51" cy="52" rx="51" ry="52" transform="translate(297 875)" fill="#eaf2c7"/>
    <g id="Enmascarar_grupo_2" data-name="Enmascarar grupo 2" transform="translate(1)" clip-path="url(#clip-path)">
      <path id="chat_24dp_5F6368_FILL1_wght400_GRAD0_opsz24" d="M5.231-5.231V-52.307A5.037,5.037,0,0,1,6.767-56a5.037,5.037,0,0,1,3.694-1.537H52.307A5.037,5.037,0,0,1,56-56a5.037,5.037,0,0,1,1.537,3.694v31.384A5.037,5.037,0,0,1,56-17.229a5.037,5.037,0,0,1-3.694,1.537H15.692ZM15.692-26.154H36.615v-5.231H15.692Zm0-7.846H47.077v-5.231H15.692Zm0-7.846H47.077v-5.231H15.692Z" transform="translate(316.769 962.538)" fill="#889543"/>
    </g>
  </g>
</svg>
