<svg xmlns="http://www.w3.org/2000/svg" xmlns:xlink="http://www.w3.org/1999/xlink" width="1980.941" height="1645" viewBox="0 0 1980.941 1645">
  <defs>
    <clipPath id="clip-path">
      <path id="Trazado_166" data-name="Trazado 166" d="M120.412,151.681v-.022a12.326,12.326,0,0,0-23.09-6.01,11.621,11.621,0,0,0-18.006,7.068,11.434,11.434,0,1,0,4.236,20.928,8.613,8.613,0,0,0,13.152.462,10.063,10.063,0,0,0,15.386-1.682,11.875,11.875,0,1,0,8.322-20.744" fill="none" clip-rule="evenodd"/>
    </clipPath>
    <clipPath id="clip-path-2">
      <rect id="Rectángulo_73" data-name="Rectángulo 73" width="418" height="430" transform="translate(2)" fill="none"/>
    </clipPath>
    <clipPath id="clip-path-5">
      <path id="Trazado_167-2" data-name="Trazado 167" d="M269.355,184.931v-.081c0-25.142-20.63-45.521-46.081-45.521a46.131,46.131,0,0,0-40.213,23.333,43.638,43.638,0,0,0-67.294,26.094,43.046,43.046,0,0,0-7.011-.613c-23.62,0-42.755,18.9-42.755,42.228S85.135,272.6,108.755,272.6A42.878,42.878,0,0,0,131.6,266.02a32.444,32.444,0,0,0,49.153,1.706,37.9,37.9,0,0,0,57.5-6.21A44.508,44.508,0,0,0,267.688,272.6c24.539,0,44.422-19.641,44.422-43.874,0-23.68-19-42.922-42.755-43.793" transform="translate(-66 -139.329)" fill="none" clip-rule="evenodd"/>
    </clipPath>
    <clipPath id="clip-path-6">
      <rect id="Rectángulo_75-2" data-name="Rectángulo 75" width="1562.196" height="1587.509" fill="none"/>
    </clipPath>
    <clipPath id="clip-path-7">
      <path id="Trazado_167-3" data-name="Trazado 167" d="M343.03,201.453v-.111c0-34.25-28.1-62.013-62.776-62.013a62.845,62.845,0,0,0-54.783,31.786A59.448,59.448,0,0,0,133.8,206.663a58.641,58.641,0,0,0-9.551-.835C92.068,205.828,66,231.579,66,263.355s26.068,57.527,58.245,57.527a58.413,58.413,0,0,0,31.118-8.962,44.2,44.2,0,0,0,66.961,2.324,51.627,51.627,0,0,0,78.335-8.46,60.634,60.634,0,0,0,40.1,15.1c33.43,0,60.516-26.757,60.516-59.77,0-32.259-25.884-58.472-58.245-59.659" transform="translate(-66 -139.329)" fill="none" clip-rule="evenodd"/>
    </clipPath>
    <clipPath id="clip-path-8">
      <rect id="Rectángulo_75-3" data-name="Rectángulo 75" width="2128.176" height="2162.66" fill="none"/>
    </clipPath>
    <clipPath id="clip-path-9">
      <path id="Trazado_167-4" data-name="Trazado 167" d="M212.7,172.226v-.059a33.308,33.308,0,0,0-62.252-16.006A31.48,31.48,0,0,0,101.9,174.985a31.052,31.052,0,0,0-5.058-.442,30.463,30.463,0,1,0,16.478,56.179,23.4,23.4,0,0,0,35.459,1.23,27.338,27.338,0,0,0,41.481-4.48A31.8,31.8,0,1,0,212.7,172.226" transform="translate(-66 -139.329)" fill="none" clip-rule="evenodd"/>
    </clipPath>
    <clipPath id="clip-path-10">
      <rect id="Rectángulo_75-4" data-name="Rectángulo 75" width="1126.95" height="1145.211" fill="none"/>
    </clipPath>
    <clipPath id="clip-path-11">
      <path id="Trazado_167-5" data-name="Trazado 167" d="M158.923,160.167v-.037a21.1,21.1,0,0,0-39.432-10.139,19.94,19.94,0,0,0-30.75,11.924,19.671,19.671,0,0,0-3.2-.28A19.3,19.3,0,1,0,95.975,197.22a14.825,14.825,0,0,0,22.46.779,17.317,17.317,0,0,0,26.276-2.838,20.146,20.146,0,1,0,14.212-35" transform="translate(-66 -139.329)" fill="none" clip-rule="evenodd"/>
    </clipPath>
    <clipPath id="clip-path-12">
      <rect id="Rectángulo_75-5" data-name="Rectángulo 75" width="713.844" height="725.411" fill="none"/>
    </clipPath>
    <clipPath id="clip-path-13">
      <path id="Trazado_167-6" data-name="Trazado 167" d="M335.642,199.8v-.108c0-33.337-27.355-60.359-61.1-60.359a61.168,61.168,0,0,0-53.322,30.938,57.863,57.863,0,0,0-89.23,34.6,57.083,57.083,0,0,0-9.3-.813C91.372,204.055,66,229.119,66,260.048s25.372,55.993,56.692,55.993a56.855,56.855,0,0,0,30.288-8.724,43.02,43.02,0,0,0,65.175,2.262,50.25,50.25,0,0,0,76.246-8.234,59.016,59.016,0,0,0,39.03,14.7c32.538,0,58.9-26.043,58.9-58.176,0-31.4-25.194-56.913-56.692-58.068" transform="translate(-66 -139.329)" fill="none" clip-rule="evenodd"/>
    </clipPath>
    <clipPath id="clip-path-14">
      <rect id="Rectángulo_75-6" data-name="Rectángulo 75" width="2071.422" height="2104.987" fill="none"/>
    </clipPath>
    <clipPath id="clip-path-15">
      <path id="Trazado_167-7" data-name="Trazado 167" d="M133.343,154.431V154.4a15.29,15.29,0,0,0-28.577-7.348A14.451,14.451,0,0,0,82.481,155.7a14.255,14.255,0,0,0-2.322-.2,13.984,13.984,0,1,0,7.565,25.79,10.744,10.744,0,0,0,16.278.565,12.55,12.55,0,0,0,19.043-2.056,14.6,14.6,0,1,0,10.3-25.362" transform="translate(-66 -139.329)" fill="rgba(0,0,0,0)" clip-rule="evenodd"/>
    </clipPath>
    <clipPath id="clip-path-16">
      <rect id="Rectángulo_75-7" data-name="Rectángulo 75" width="517.34" height="525.723" fill="rgba(0,0,0,0)"/>
    </clipPath>
    <clipPath id="clip-path-17">
      <path id="Trazado_167-8" data-name="Trazado 167" d="M194.354,168.112v-.051a29.143,29.143,0,0,0-54.468-14,27.544,27.544,0,0,0-42.475,16.47,27.17,27.17,0,0,0-4.425-.387A26.654,26.654,0,1,0,107.4,219.294a20.478,20.478,0,0,0,31.025,1.077,23.92,23.92,0,0,0,36.294-3.919,27.827,27.827,0,1,0,19.631-48.339" transform="translate(-66 -139.329)" fill="rgba(0,0,0,0)" stroke="#0482a6" stroke-width="5" clip-rule="evenodd"/>
    </clipPath>
    <clipPath id="clip-path-18">
      <rect id="Rectángulo_75-8" data-name="Rectángulo 75" width="986.03" height="1002.007" fill="rgba(0,0,0,0)" stroke="#0482a6" stroke-width="5"/>
    </clipPath>
    <clipPath id="clip-path-19">
      <path id="Trazado_34" data-name="Trazado 34" d="M11.153,30.042A11.466,11.466,0,0,1,1.18,17.236c.038-.267.087-.531.134-.784a11.306,11.306,0,0,1,2.353-4.938c.017,0,.032-.029.047-.04a9.257,9.257,0,0,1,6.954-1.919,8.992,8.992,0,0,1,2.67.758l.058.023a9.073,9.073,0,0,1,2.565,1.772c.111.095.192.178.273.259a9.035,9.035,0,0,1,2.405,7.391.544.544,0,0,0,1.076.141,10.1,10.1,0,0,0-2.7-8.267,3.058,3.058,0,0,0-.314-.287,10.06,10.06,0,0,0-2.908-1.991l-.052-.02A10.135,10.135,0,0,0,10.792,8.5a10.709,10.709,0,0,0-1.349-.086,10.3,10.3,0,0,0-2.318.247,11.6,11.6,0,0,1,7.009-1.278,11.335,11.335,0,0,1,3.345.951l.067.026a11.365,11.365,0,0,1,3.222,2.232c.131.115.233.218.337.322a11.317,11.317,0,0,1,1.838,13.023,11.6,11.6,0,0,1-11.79,6.106ZM25.2,20.318a12.375,12.375,0,0,0-3.31-10.146c-.134-.135-.256-.256-.381-.362a12.256,12.256,0,0,0-3.554-2.445.425.425,0,0,0-.064-.026,12.407,12.407,0,0,0-3.615-1.02,12.879,12.879,0,0,0-1.658-.106A12.693,12.693,0,0,0,4.708,8.977a.85.85,0,0,0-.076.072,12.435,12.435,0,0,0-4.386,7.2c-.052.287-.1.56-.14.845a12.526,12.526,0,0,0,10.913,14A12.622,12.622,0,0,0,25.2,20.318Zm4.944-1.6A4.738,4.738,0,0,1,28,15.7C26.5,9.856,23.333,6.1,18.586,4.524a17.526,17.526,0,0,0-9.167-.313c3.2-1.81,8.111-3.757,13.061-2.924,5.386.908,9.743,4.858,12.951,11.743a4.829,4.829,0,0,1,.119,4.1A3.478,3.478,0,0,1,33.3,19.043a4.058,4.058,0,0,1-3.153-.327Zm3.449,1.359a4.559,4.559,0,0,0,2.946-2.511,5.909,5.909,0,0,0-.119-5C33.052,5.343,28.425,1.186,22.664.215A16.079,16.079,0,0,0,20.032,0C12.621,0,6.043,4.9,5.025,5.943a.532.532,0,0,0,0,.723.549.549,0,0,0,.729.067C7.067,5.711,12.892,3.777,18.24,5.541,22.6,6.978,25.546,10.5,26.965,15.966a5.826,5.826,0,0,0,2.652,3.68A5.11,5.11,0,0,0,33.59,20.077Z" fill="none" stroke="#008bb0" stroke-miterlimit="10" stroke-width="0.5"/>
    </clipPath>
    <clipPath id="clip-path-20">
      <rect id="Rectángulo_26" data-name="Rectángulo 26" width="121.566" height="123.522" transform="translate(0 0)" fill="none" stroke="#008bb0" stroke-miterlimit="10" stroke-width="0.5"/>
    </clipPath>
    <clipPath id="clip-path-21">
      <path id="Trazado_37" data-name="Trazado 37" d="M3.49,1.745A1.745,1.745,0,1,0,1.745,3.49,1.745,1.745,0,0,0,3.49,1.745" fill="#0482a6" stroke="#008bb0" stroke-miterlimit="10" stroke-width="0.5"/>
    </clipPath>
    <clipPath id="clip-path-22">
      <rect id="Rectángulo_30" data-name="Rectángulo 30" width="121.566" height="125.056" transform="translate(0 0)" fill="#0482a6" stroke="#008bb0" stroke-miterlimit="10" stroke-width="0.5"/>
    </clipPath>
    <clipPath id="clip-path-23">
      <path id="Trazado_40" data-name="Trazado 40" d="M4.56,2.271a2.283,2.283,0,1,0,0,.012" fill="#0482a6" stroke="#008bb0" stroke-miterlimit="10" stroke-width="0.5"/>
    </clipPath>
  </defs>
  <g id="Grupo_217" data-name="Grupo 217" transform="translate(60.941 -5757)">
    <rect id="Rectángulo_71" data-name="Rectángulo 71" width="1920" height="1645" transform="translate(0 5757)" fill="#cfecf4"/>
    <g id="Grupo_110" data-name="Grupo 110" transform="translate(626.98 6923.137) rotate(-17)">
      <path id="Trazado_57" data-name="Trazado 57" d="M58.818,76.241A18.462,18.462,0,0,0,74.7,67.257a24.609,24.609,0,0,0,9.178,1.77,24.917,24.917,0,0,0,.128-49.833,24.053,24.053,0,0,0-43.47-8.634,15.583,15.583,0,0,0-8.4-2.427A15.815,15.815,0,0,0,16.394,22.709a18.136,18.136,0,0,0-.529,36.046A23.836,23.836,0,0,0,38.242,74.7a23.38,23.38,0,0,0,9.6-2.053A18.617,18.617,0,0,0,58.818,76.241ZM74.057,63.884a1.482,1.482,0,0,0-1.323.814,15.576,15.576,0,0,1-23.768,5.07,1.481,1.481,0,0,0-1.59-.18,20.515,20.515,0,0,1-9.134,2.145A20.844,20.844,0,0,1,18.4,56.952,1.481,1.481,0,0,0,17.079,55.9a15.174,15.174,0,0,1,.786-30.309,1.481,1.481,0,0,0,1.453-1.481c0-.067,0-.132-.008-.2A12.842,12.842,0,0,1,32.143,11.1a12.692,12.692,0,0,1,7.9,2.737,1.481,1.481,0,0,0,2.191-.415,21.095,21.095,0,0,1,39.079,7.532,1.482,1.482,0,0,0,1.532,1.261c.144-.006.289-.016.432-.026.2-.013.4-.028.6-.028a21.954,21.954,0,1,1,0,43.908,21.758,21.758,0,0,1-9.2-2.043A1.477,1.477,0,0,0,74.057,63.884Z" transform="translate(0 0)" fill="#0482a6"/>
      <path id="Trazado_58" data-name="Trazado 58" d="M28.661,108.958c.127,0,.516-.818.645-.851.792-.2,1.019-1.3.814-2.093L2.916,1.11a1.481,1.481,0,1,0-2.868.744l28.173,108.57C28.393,111.086,28.008,108.951,28.661,108.958Z" transform="translate(1.881 47.124)" fill="#0482a6"/>
      <path id="Trazado_59" data-name="Trazado 59" d="M1.262,102.528c.622,0,.679,1.2.885.581L36.015,1.947A1.481,1.481,0,1,0,33.2,1.016L.113,99.815c-.257.776-.092,2.381.684,2.638A1.47,1.47,0,0,0,1.262,102.528Z" transform="translate(71.631 49.714)" fill="#0482a6"/>
      <path id="Trazado_60" data-name="Trazado 60" d="M11.7,65.948a1.483,1.483,0,0,0,1.464-1.719L2.944,1.245a1.481,1.481,0,1,0-2.924.474L10.244,64.7A1.482,1.482,0,0,0,11.7,65.948Z" transform="translate(33.781 73.22)" fill="#0482a6"/>
      <path id="Trazado_61" data-name="Trazado 61" d="M1.484,68.071a1.481,1.481,0,0,0,1.46-1.247L13.378,1.716a1.481,1.481,0,0,0-2.925-.469L.019,66.354a1.481,1.481,0,0,0,1.229,1.7A1.432,1.432,0,0,0,1.484,68.071Z" transform="translate(56.456 70.689)" fill="#0482a6"/>
      <path id="Trazado_62" data-name="Trazado 62" d="M15.206,42.662a15.908,15.908,0,0,0,0-31.815c-.116,0-.232,0-.349,0A13.629,13.629,0,0,0,1.482,0h0a1.482,1.482,0,0,0,0,2.963,10.674,10.674,0,0,1,10.648,9.609,1.48,1.48,0,0,0,1.636,1.322,13.125,13.125,0,0,1,1.442-.084,12.944,12.944,0,1,1,0,25.889A12.828,12.828,0,0,1,5.829,35.66,1.481,1.481,0,0,0,3.681,37.7,15.762,15.762,0,0,0,15.206,42.662Z" transform="translate(45.033 19.76)" fill="#0482a6"/>
      <g id="Grupo_109" data-name="Grupo 109" transform="translate(29.779 136.598)">
        <g id="Grupo_108" data-name="Grupo 108" transform="translate(0 0)">
          <path id="Trazado_63" data-name="Trazado 63" d="M25.537,45.115a22.071,22.071,0,0,0,6.473-1.844,1.058,1.058,0,0,0,.111-.043A22.079,22.079,0,0,0,38.489,38.8c.223-.194.444-.415.682-.658a22.615,22.615,0,0,0,5.941-18.381h0a22.649,22.649,0,1,0-44.924,5.8c.068.517.16,1.031.252,1.534A22.608,22.608,0,0,0,8.277,40.154a1.624,1.624,0,0,0,.139.131,22.539,22.539,0,0,0,14.153,5.021A23.061,23.061,0,0,0,25.537,45.115ZM9.548,38.684a20.637,20.637,0,0,1-7.2-11.949c-.083-.456-.17-.937-.234-1.421a20.707,20.707,0,1,1,41.072-5.3h0A20.672,20.672,0,0,1,37.771,36.8c-.186.187-.369.374-.606.583A20.281,20.281,0,0,1,31.4,41.423a1.116,1.116,0,0,0-.12.046,20.136,20.136,0,0,1-5.989,1.72A20.627,20.627,0,0,1,9.677,38.806C9.637,38.764,9.58,38.711,9.548,38.684Zm-1.2,1.525c-.014-.012-.029-.023-.044-.037Zm1.3-1.425-.032-.026Z" transform="translate(0 0)" fill="#0482a6"/>
          <path id="Trazado_64" data-name="Trazado 64" d="M14.395,21.52a17.979,17.979,0,0,0,5.274-1.5c.033-.011.064-.023.1-.037a17.981,17.981,0,0,0,5.185-3.6c.183-.16.363-.341.564-.543A18.439,18.439,0,0,0,30.356.847.971.971,0,1,0,28.43,1.1a16.491,16.491,0,0,1-4.317,13.393c-.147.148-.293.3-.489.47a16.2,16.2,0,0,1-4.6,3.222,1.042,1.042,0,0,0-.1.04,16.051,16.051,0,0,1-4.778,1.372A16.449,16.449,0,0,1,1.7,16.1a1.3,1.3,0,0,0-.143-.129A.971.971,0,0,0,.3,17.452a1.477,1.477,0,0,0,.136.13,18.383,18.383,0,0,0,11.541,4.092A18.673,18.673,0,0,0,14.395,21.52ZM.389,17.528h0Z" transform="translate(4.939 19.657)" fill="#0482a6"/>
          <path id="Trazado_65" data-name="Trazado 65" d="M31.837,36.338c10.315-1.749,18.6-9.273,24.64-22.365h0a10.809,10.809,0,0,0,.22-9.057A8.182,8.182,0,0,0,51.4.388a9.05,9.05,0,0,0-7.112.775,10.518,10.518,0,0,0-4.752,6.664c-2.524,9.91-7.775,16.264-15.608,18.884-9.579,3.2-20-.326-22.35-2.207A.971.971,0,0,0,.272,25.935c1.818,1.883,13.588,10.779,26.855,10.79A28.107,28.107,0,0,0,31.837,36.338Zm-7.291-7.785c8.5-2.843,14.178-9.655,16.875-20.246a8.59,8.59,0,0,1,3.843-5.463,7.158,7.158,0,0,1,5.618-.584,6.269,6.269,0,0,1,4.052,3.473,8.88,8.88,0,0,1-.221,7.428c-5.751,12.473-13.557,19.627-23.2,21.262-8.863,1.5-17.633-2.031-23.38-5.316A31.04,31.04,0,0,0,24.546,28.552ZM55.6,13.567h0Z" transform="translate(8.707 19.824)" fill="#0482a6"/>
          <ellipse id="Elipse_2" data-name="Elipse 2" cx="3.127" cy="3.127" rx="3.127" ry="3.127" transform="translate(52.174 9.499)" fill="#0482a6"/>
          <ellipse id="Elipse_3" data-name="Elipse 3" cx="4.077" cy="4.077" rx="4.077" ry="4.077" transform="translate(60.632 7.606)" fill="#0482a6"/>
        </g>
        <path id="Trazado_66" data-name="Trazado 66" d="M2.974,8.236a.51.51,0,0,0,.27-.943A4.732,4.732,0,0,1,1.74.78.51.51,0,0,0,.875.24,5.748,5.748,0,0,0,2.7,8.159.512.512,0,0,0,2.974,8.236Z" transform="translate(52.995 25.452)" fill="#0482a6"/>
      </g>
    </g>
    <g id="Grupo_198" data-name="Grupo 198" transform="translate(707 6941.671)">
      <g id="Grupo_197" data-name="Grupo 197" clip-path="url(#clip-path)">
        <g id="Grupo_196" data-name="Grupo 196">
          <g id="Grupo_195" data-name="Grupo 195" clip-path="url(#clip-path-2)">
            <rect id="Rectángulo_72" data-name="Rectángulo 72" width="85.852" height="57.606" transform="translate(56 129.329)" fill="#fff"/>
          </g>
        </g>
      </g>
    </g>
    <g id="Grupo_202" data-name="Grupo 202" transform="translate(557.561 6968.516)">
      <g id="Grupo_201" data-name="Grupo 201" clip-path="url(#clip-path)">
        <g id="Grupo_200" data-name="Grupo 200">
          <g id="Grupo_199" data-name="Grupo 199" clip-path="url(#clip-path-2)">
            <rect id="Rectángulo_74" data-name="Rectángulo 74" width="85.852" height="57.606" transform="translate(56 129.329)" fill="#fff"/>
          </g>
        </g>
      </g>
    </g>
    <g id="Grupo_203" data-name="Grupo 203" transform="translate(273.641 7094.671)">
      <g id="Grupo_201-2" data-name="Grupo 201" transform="translate(66 139.329)" clip-path="url(#clip-path-5)">
        <g id="Grupo_200-2" data-name="Grupo 200" transform="translate(-239.188 -514.386)">
          <g id="Grupo_199-2" data-name="Grupo 199" transform="translate(0)" clip-path="url(#clip-path-6)">
            <rect id="Rectángulo_74-2" data-name="Rectángulo 74" width="320.856" height="212.674" transform="translate(201.815 477.469)" fill="#fff"/>
          </g>
        </g>
      </g>
    </g>
    <g id="Grupo_215" data-name="Grupo 215" transform="translate(-126.941 6935.323)">
      <g id="Grupo_201-3" data-name="Grupo 201" transform="translate(66 139.329)" clip-path="url(#clip-path-7)">
        <g id="Grupo_200-3" data-name="Grupo 200" transform="translate(-325.845 -700.747)">
          <g id="Grupo_199-3" data-name="Grupo 199" transform="translate(0)" clip-path="url(#clip-path-8)">
            <rect id="Rectángulo_74-3" data-name="Rectángulo 74" width="437.101" height="289.726" transform="translate(274.932 650.455)" fill="#fff"/>
          </g>
        </g>
      </g>
    </g>
    <g id="Grupo_206" data-name="Grupo 206" transform="translate(666.98 7060.275)">
      <g id="Grupo_201-4" data-name="Grupo 201" transform="translate(66 139.329)" clip-path="url(#clip-path-9)">
        <g id="Grupo_200-4" data-name="Grupo 200" transform="translate(-172.547 -371.072)">
          <g id="Grupo_199-4" data-name="Grupo 199" transform="translate(0)" clip-path="url(#clip-path-10)">
            <rect id="Rectángulo_74-4" data-name="Rectángulo 74" width="231.462" height="153.421" transform="translate(145.587 344.441)" fill="#fff"/>
          </g>
        </g>
      </g>
    </g>
    <g id="Grupo_205" data-name="Grupo 205" transform="translate(1158 7024.479)">
      <g id="Grupo_201-5" data-name="Grupo 201" transform="translate(66 139.329)" clip-path="url(#clip-path-11)">
        <g id="Grupo_200-5" data-name="Grupo 200" transform="translate(-109.297 -235.048)">
          <g id="Grupo_199-5" data-name="Grupo 199" transform="translate(0)" clip-path="url(#clip-path-12)">
            <rect id="Rectángulo_74-5" data-name="Rectángulo 74" width="146.615" height="97.181" transform="translate(92.219 218.179)" fill="#fff"/>
          </g>
        </g>
      </g>
    </g>
    <g id="Grupo_216" data-name="Grupo 216" transform="translate(1522 7036.388)">
      <g id="Grupo_201-6" data-name="Grupo 201" transform="translate(66 139.329)" clip-path="url(#clip-path-13)">
        <g id="Grupo_200-6" data-name="Grupo 200" transform="translate(-317.156 -682.06)">
          <g id="Grupo_199-6" data-name="Grupo 199" transform="translate(0)" clip-path="url(#clip-path-14)">
            <rect id="Rectángulo_74-6" data-name="Rectángulo 74" width="425.444" height="282" transform="translate(267.6 633.109)" fill="#fff"/>
          </g>
        </g>
      </g>
    </g>
    <g id="Grupo_211" data-name="Grupo 211" transform="translate(28.99 34.902)">
      <g id="Grupo_204" data-name="Grupo 204" transform="translate(998.374 7278.931)" style="isolation: isolate">
        <g id="Grupo_201-7" data-name="Grupo 201" transform="translate(0 0)" clip-path="url(#clip-path-15)">
          <g id="Grupo_200-7" data-name="Grupo 200" transform="translate(-79.21 -170.345)">
            <g id="Grupo_199-7" data-name="Grupo 199" transform="translate(0)" clip-path="url(#clip-path-16)">
              <rect id="Rectángulo_74-7" data-name="Rectángulo 74" width="106.255" height="70.43" transform="translate(66.833 158.12)" fill="#fff"/>
            </g>
          </g>
        </g>
      </g>
      <g id="Grupo_115" data-name="Grupo 115" transform="translate(1042.418 7205.764) rotate(26)">
        <g id="Grupo_111" data-name="Grupo 111" transform="translate(55.142 52.137)">
          <line id="Línea_2" data-name="Línea 2" x1="2.723" y2="11.613" transform="translate(0.656 0.656)" fill="#0482a6"/>
          <path id="Trazado_67" data-name="Trazado 67" d="M.656,12.924a.644.644,0,0,1-.15-.018.656.656,0,0,1-.489-.788L2.741.506a.656.656,0,0,1,1.277.3L1.294,12.419A.656.656,0,0,1,.656,12.924Z" fill="#0482a6"/>
        </g>
        <g id="Grupo_112" data-name="Grupo 112" transform="translate(51.496 58.813)">
          <line id="Línea_3" data-name="Línea 3" x1="1.774" y2="8.078" transform="translate(0.656 0.656)" fill="#0482a6"/>
          <path id="Trazado_68" data-name="Trazado 68" d="M.657,9.39a.637.637,0,0,1-.141-.016.656.656,0,0,1-.5-.781L1.789.515A.656.656,0,1,1,3.07.8L1.3,8.875A.657.657,0,0,1,.657,9.39Z" fill="#0482a6"/>
        </g>
        <g id="Grupo_114" data-name="Grupo 114" transform="translate(0 0)">
          <g id="Grupo_113" data-name="Grupo 113">
            <path id="Trazado_69" data-name="Trazado 69" d="M38.986,9.04a21.368,21.368,0,0,1,3.937,13.685,1.633,1.633,0,0,1-.025.179,21.438,21.438,0,0,1-5.745,13.248c-.337.348-.683.7-1.045,1.04A21.477,21.477,0,1,1,6.848,5.745h0A21.447,21.447,0,0,1,24.3.186c.318.05.611.1.884.163a20.938,20.938,0,0,1,6.927,2.469c.032.02.064.04.094.062A20.909,20.909,0,0,1,37.2,6.856,21.8,21.8,0,0,1,38.986,9.04Zm2.1,13.528A19.557,19.557,0,0,0,35.853,8.11a19.091,19.091,0,0,0-4.631-3.67.965.965,0,0,1-.1-.067,19.229,19.229,0,0,0-6.3-2.219c-.293-.067-.537-.106-.784-.146A19.6,19.6,0,0,0,8.1,7.093h0A19.636,19.636,0,1,0,34.853,35.844c.338-.315.66-.648.967-.964a19.571,19.571,0,0,0,5.243-12.146C41.066,22.7,41.076,22.623,41.087,22.568Zm1.813.31c0-.019,0-.037,0-.055C42.9,22.842,42.9,22.86,42.9,22.878Zm-1.817-.235,0-.039C41.084,22.618,41.083,22.63,41.083,22.643Z" transform="translate(14.062 18.508)" fill="#0482a6"/>
            <path id="Trazado_70" data-name="Trazado 70" d="M26.5,7.37a17.43,17.43,0,0,1,3.211,11.158,1.46,1.46,0,0,1-.025.177.921.921,0,0,1-1.832-.154,1.2,1.2,0,0,1,.021-.182A15.6,15.6,0,0,0,23.7,6.845,15.215,15.215,0,0,0,20,3.916a.916.916,0,0,1-.088-.057,15.357,15.357,0,0,0-5.021-1.767c-.242-.056-.438-.086-.632-.118A15.641,15.641,0,0,0,1.551,6.033.921.921,0,0,1,.3,4.685,17.486,17.486,0,0,1,14.528.151c.267.042.506.081.731.134A17.08,17.08,0,0,1,20.9,2.3c.028.016.055.034.081.052a17.072,17.072,0,0,1,4.067,3.24A17.8,17.8,0,0,1,26.5,7.37ZM29.7,18.6v0Z" transform="translate(26.603 26.731)" fill="#0482a6"/>
            <path id="Trazado_71" data-name="Trazado 71" d="M41.9,11.113c7.311,10.238,6.944,24.224,6.495,26.664a.921.921,0,0,1-1.826-.217c.156-2.848-2.872-12.836-10.629-18.455-6.342-4.6-14.14-5.14-23.175-1.619A9.973,9.973,0,0,1,5,17.5,8.579,8.579,0,0,1,.48,12.44a7.761,7.761,0,0,1,.57-6.583A10.253,10.253,0,0,1,8.158,1.029h0C21.584-1.538,31.962.7,39,7.694A26.557,26.557,0,0,1,41.9,11.113Zm4.6,18.853C45.864,23.721,43.753,15.007,37.7,9,31.121,2.465,21.3.392,8.5,2.839A8.419,8.419,0,0,0,2.652,6.766a5.945,5.945,0,0,0-.442,5.041,6.792,6.792,0,0,0,3.55,4.012,8.149,8.149,0,0,0,6.333-.05c9.657-3.763,18.044-3.143,24.926,1.844A29.43,29.43,0,0,1,46.5,29.966ZM8.331,1.934l-.005-.008Z" transform="translate(12.502)" fill="#0482a6"/>
            <circle id="Elipse_4" data-name="Elipse 4" cx="2.966" cy="2.966" r="2.966" transform="translate(6.819 17.368)" fill="#0482a6"/>
            <circle id="Elipse_5" data-name="Elipse 5" cx="3.867" cy="3.867" r="3.867" transform="translate(0 9.73)" fill="#0482a6"/>
          </g>
          <path id="Trazado_72" data-name="Trazado 72" d="M5.819,8.749a.465.465,0,0,1-.359-.761A4.312,4.312,0,0,0,.628,1.2.465.465,0,0,1,.3.332,5.242,5.242,0,0,1,6.179,8.579.465.465,0,0,1,5.819,8.749Z" transform="translate(17.144 5.355)" fill="#0482a6"/>
        </g>
      </g>
    </g>
    <g id="Grupo_207" data-name="Grupo 207" transform="translate(1317.993 7236.377)">
      <g id="Grupo_201-8" data-name="Grupo 201" transform="translate(0 0)" clip-path="url(#clip-path-17)">
        <g id="Grupo_200-8" data-name="Grupo 200" transform="translate(-150.971 -324.671)">
          <g id="Grupo_199-8" data-name="Grupo 199" transform="translate(0)" clip-path="url(#clip-path-18)">
            <rect id="Rectángulo_74-8" data-name="Rectángulo 74" width="202.518" height="134.236" transform="translate(127.382 301.37)" fill="#fff" stroke="#0482a6" stroke-width="5"/>
          </g>
        </g>
      </g>
    </g>
    <g id="Grupo_213" data-name="Grupo 213" transform="matrix(0.985, -0.174, 0.174, 0.985, 1393.803, 7204.641)">
      <g id="Capa_2" data-name="Capa 2" transform="translate(37.279 39.571) rotate(-166)">
        <g id="Capa_1" data-name="Capa 1" transform="translate(0 0)">
          <g id="Grupo_43" data-name="Grupo 43" transform="translate(0 0)" clip-path="url(#clip-path-19)">
            <g id="Grupo_42" data-name="Grupo 42" transform="translate(-41.35 -73.352)" clip-path="url(#clip-path-20)">
              <rect id="Rectángulo_25" data-name="Rectángulo 25" width="42.853" height="36.942" transform="translate(38.442 70.494)" fill="#0482a6" stroke="#008bb0" stroke-miterlimit="10" stroke-width="0.5"/>
            </g>
            <rect id="Rectángulo_27" data-name="Rectángulo 27" width="121.566" height="123.522" transform="translate(-41.35 -73.352)" fill="none" stroke="#008bb0" stroke-miterlimit="10" stroke-width="0.5"/>
          </g>
          <path id="Trazado_35" data-name="Trazado 35" d="M11.153,30.042A11.466,11.466,0,0,1,1.18,17.236c.038-.267.087-.531.134-.784a11.306,11.306,0,0,1,2.353-4.938c.017,0,.032-.029.047-.04a9.257,9.257,0,0,1,6.954-1.919,8.992,8.992,0,0,1,2.67.758l.058.023a9.073,9.073,0,0,1,2.565,1.772c.111.095.192.178.273.259a9.035,9.035,0,0,1,2.405,7.391.544.544,0,0,0,1.076.141,10.1,10.1,0,0,0-2.7-8.267,3.058,3.058,0,0,0-.314-.287,10.06,10.06,0,0,0-2.908-1.991l-.052-.02A10.135,10.135,0,0,0,10.792,8.5a10.709,10.709,0,0,0-1.349-.086,10.3,10.3,0,0,0-2.318.247,11.6,11.6,0,0,1,7.009-1.278,11.335,11.335,0,0,1,3.345.951l.067.026a11.365,11.365,0,0,1,3.222,2.232c.131.115.233.218.337.322a11.317,11.317,0,0,1,1.838,13.023,11.6,11.6,0,0,1-11.79,6.106ZM25.2,20.318a12.375,12.375,0,0,0-3.31-10.146c-.134-.135-.256-.256-.381-.362a12.256,12.256,0,0,0-3.554-2.445.425.425,0,0,0-.064-.026,12.407,12.407,0,0,0-3.615-1.02,12.879,12.879,0,0,0-1.658-.106A12.693,12.693,0,0,0,4.708,8.977a.85.85,0,0,0-.076.072,12.435,12.435,0,0,0-4.386,7.2c-.052.287-.1.56-.14.845a12.526,12.526,0,0,0,10.913,14A12.622,12.622,0,0,0,25.2,20.318Zm4.944-1.6A4.738,4.738,0,0,1,28,15.7C26.5,9.856,23.333,6.1,18.586,4.524a17.526,17.526,0,0,0-9.167-.313c3.2-1.81,8.111-3.757,13.061-2.924,5.386.908,9.743,4.858,12.951,11.743a4.829,4.829,0,0,1,.119,4.1A3.478,3.478,0,0,1,33.3,19.043a4.058,4.058,0,0,1-3.153-.327Zm3.449,1.359a4.559,4.559,0,0,0,2.946-2.511,5.909,5.909,0,0,0-.119-5C33.052,5.343,28.425,1.186,22.664.215A16.079,16.079,0,0,0,20.032,0C12.621,0,6.043,4.9,5.025,5.943a.532.532,0,0,0,0,.723.549.549,0,0,0,.729.067C7.067,5.711,12.892,3.777,18.24,5.541,22.6,6.978,25.546,10.5,26.965,15.966a5.826,5.826,0,0,0,2.652,3.68A5.11,5.11,0,0,0,33.59,20.077Z" fill="none" stroke="#008bb0" stroke-miterlimit="10" stroke-width="0.5" fill-rule="evenodd"/>
          <path id="Trazado_36" data-name="Trazado 36" d="M3.49,1.745A1.745,1.745,0,1,0,1.745,3.49,1.745,1.745,0,0,0,3.49,1.745" transform="translate(29.143 22.501)" fill="#0482a6" stroke="#707070" stroke-width="0.5" fill-rule="evenodd"/>
          <g id="Grupo_45" data-name="Grupo 45" transform="translate(29.143 22.501)" clip-path="url(#clip-path-21)">
            <rect id="Rectángulo_28" data-name="Rectángulo 28" width="121.566" height="125.056" transform="translate(-70.494 -97.078)" fill="#0482a6" stroke="#707070" stroke-width="0.5"/>
            <g id="Grupo_44" data-name="Grupo 44" transform="translate(-70.494 -97.078)" clip-path="url(#clip-path-22)">
              <rect id="Rectángulo_29" data-name="Rectángulo 29" width="9.309" height="9.309" transform="translate(67.582 94.17)" fill="#0482a6" stroke="#008bb0" stroke-miterlimit="10" stroke-width="0.5"/>
            </g>
            <rect id="Rectángulo_31" data-name="Rectángulo 31" width="121.566" height="125.056" transform="translate(-70.494 -97.078)" fill="none" stroke="#008bb0" stroke-miterlimit="10" stroke-width="0.5"/>
          </g>
          <path id="Trazado_38" data-name="Trazado 38" d="M3.49,1.745A1.745,1.745,0,1,0,1.745,3.49,1.745,1.745,0,0,0,3.49,1.745" transform="translate(29.143 22.501)" fill="none" stroke="#008bb0" stroke-miterlimit="10" stroke-width="0.5" fill-rule="evenodd"/>
          <path id="Trazado_39" data-name="Trazado 39" d="M4.56,2.271a2.283,2.283,0,1,0,0,.012" transform="translate(33.861 22.434)" fill="#0482a6" stroke="#707070" stroke-width="0.5" fill-rule="evenodd"/>
          <g id="Grupo_47" data-name="Grupo 47" transform="translate(33.861 22.434)" clip-path="url(#clip-path-23)">
            <rect id="Rectángulo_32" data-name="Rectángulo 32" width="121.566" height="125.056" transform="translate(-75.211 -97.084)" fill="#0482a6" stroke="#707070" stroke-width="0.5"/>
            <g id="Grupo_46" data-name="Grupo 46" transform="translate(-75.211 -97.084)" clip-path="url(#clip-path-22)">
              <rect id="Rectángulo_33" data-name="Rectángulo 33" width="10.371" height="10.371" transform="translate(72.308 94.17)" fill="#0482a6" stroke="#008bb0" stroke-miterlimit="10" stroke-width="0.5"/>
            </g>
            <rect id="Rectángulo_35" data-name="Rectángulo 35" width="121.566" height="125.056" transform="translate(-75.211 -97.084)" fill="none" stroke="#008bb0" stroke-miterlimit="10" stroke-width="0.5"/>
          </g>
          <path id="Trazado_41" data-name="Trazado 41" d="M4.56,2.271a2.283,2.283,0,1,0,0,.012" transform="translate(33.861 22.434)" fill="none" stroke="#008bb0" stroke-miterlimit="10" stroke-width="0.5" fill-rule="evenodd"/>
        </g>
      </g>
      <path id="Trazado_42" data-name="Trazado 42" d="M0,.8A4.335,4.335,0,0,1,2.742.018,3.155,3.155,0,0,1,4.975,1.467" transform="translate(11.812 19.711) rotate(-166)" fill="none" stroke="#008bb0" stroke-linecap="round" stroke-width="1"/>
    </g>
    <g id="Grupo_210" data-name="Grupo 210">
      <g id="Grupo_118" data-name="Grupo 118" transform="translate(533.582 7192.23) rotate(-24)">
        <g id="Grupo_117" data-name="Grupo 117" transform="translate(0)">
          <g id="Grupo_116" data-name="Grupo 116">
            <path id="Trazado_73" data-name="Trazado 73" d="M-802.12,1071.273a34.668,34.668,0,0,0,22.611-4.737,2.5,2.5,0,0,0,.237-.171,34.777,34.777,0,0,0,14.64-18.289c.244-.747.491-1.512.7-2.287a34.881,34.881,0,0,0-24.571-42.713,34.875,34.875,0,0,0-42.721,24.608h0a34.794,34.794,0,0,0,5.268,29.249c.313.419.606.8.905,1.144a33.974,33.974,0,0,0,8.8,8.06,1.684,1.684,0,0,0,.16.089,33.964,33.964,0,0,0,9.488,4.145A35.477,35.477,0,0,0-802.12,1071.273Zm20.994-7.251a31.729,31.729,0,0,1-24.7,3.463,31.017,31.017,0,0,1-8.776-3.857,1.662,1.662,0,0,0-.172-.095,31.2,31.2,0,0,1-7.962-7.349c-.319-.368-.559-.691-.8-1.014a31.8,31.8,0,0,1-4.8-26.709h0a31.927,31.927,0,0,1,39.06-22.5,31.892,31.892,0,0,1,22.462,39.05c-.2.725-.427,1.438-.648,2.117a31.759,31.759,0,0,1-13.44,16.733C-780.96,1063.9-781.056,1063.965-781.127,1064.021Zm1.819,2.365c-.026.018-.052.034-.076.047C-779.358,1066.417-779.332,1066.4-779.307,1066.386Zm-1.715-2.427-.055.033Z" transform="translate(865.708 -1001.868)" fill="#0482a6"/>
            <path id="Trazado_74" data-name="Trazado 74" d="M-797.608,1064.922a28.273,28.273,0,0,0,18.438-3.86,2.3,2.3,0,0,0,.234-.17,1.493,1.493,0,0,0,.422-1.935,1.494,1.494,0,0,0-2.032-.575,1.947,1.947,0,0,0-.245.167,25.3,25.3,0,0,1-19.7,2.753,24.7,24.7,0,0,1-7-3.076,1.393,1.393,0,0,0-.15-.083,24.9,24.9,0,0,1-6.342-5.86c-.264-.3-.456-.561-.649-.817a25.372,25.372,0,0,1-3.821-21.309,1.493,1.493,0,0,0-1.054-1.831,1.486,1.486,0,0,0-1.831,1.054,28.366,28.366,0,0,0,4.294,23.849c.264.351.5.664.748.947a27.677,27.677,0,0,0,7.163,6.559,1.347,1.347,0,0,0,.137.077,27.679,27.679,0,0,0,7.73,3.375A28.77,28.77,0,0,0-797.608,1064.922Zm18.524-3.934h0Z" transform="translate(870.636 -1000.41)" fill="#0482a6"/>
            <path id="Trazado_75" data-name="Trazado 75" d="M-774.288,1084.463c20.228,2.718,40.005-8.418,43.165-10.914a1.494,1.494,0,0,0,.3-2.023,1.49,1.49,0,0,0-2-.431c-3.964,2.385-20.585,5.618-34.529-1.243-11.4-5.607-18.1-16.377-19.9-32.006a16.177,16.177,0,0,0-5.871-11.139,13.916,13.916,0,0,0-10.682-2.647,12.59,12.59,0,0,0-9.008,5.811,16.632,16.632,0,0,0-1.53,13.855h0c6.5,21.2,17.589,34.382,32.954,39.174A43.179,43.179,0,0,0-774.288,1084.463Zm30.527-7.7c-9.439,3.824-23.537,7.406-36.74,3.286-14.365-4.479-24.79-17-30.986-37.2a13.656,13.656,0,0,1,1.193-11.37,9.644,9.644,0,0,1,6.894-4.458,11.017,11.017,0,0,1,8.446,2.048,13.215,13.215,0,0,1,4.732,9.12c1.93,16.7,9.181,28.26,21.554,34.345C-760.254,1076.677-751.053,1077.4-743.76,1076.761Zm-69.155-33.474-.015,0Z" transform="translate(815.334 -1000.651)" fill="#0482a6"/>
            <ellipse id="Elipse_6" data-name="Elipse 6" cx="4.811" cy="4.811" rx="4.811" ry="4.811" transform="translate(15.612 8.025)" fill="#0482a6"/>
            <ellipse id="Elipse_7" data-name="Elipse 7" cx="6.273" cy="6.273" rx="6.273" ry="6.273" transform="translate(0 3.186)" fill="#0482a6"/>
          </g>
        </g>
        <path id="Trazado_76" data-name="Trazado 76" d="M-754.419,1034.4l2.749,2.748,2.18-2.748,2.8,2.748,2.132-2.748,2.843,2.748,2.085-2.748" transform="translate(760.302 -1000.072)" fill="none" stroke="#0482a6" stroke-linecap="round" stroke-linejoin="round" stroke-width="2"/>
      </g>
      <g id="Grupo_208" data-name="Grupo 208" transform="translate(1986.821 6941.76) rotate(26)">
        <line id="Línea_2-2" data-name="Línea 2" x1="4.319" y2="18.416" transform="translate(-1076.589 827.021)" fill="#0482a6"/>
        <path id="Trazado_67-2" data-name="Trazado 67" d="M-1076.588,846.477a1.023,1.023,0,0,1-.238-.028,1.04,1.04,0,0,1-.775-1.25l4.319-18.416a1.038,1.038,0,0,1,1.25-.775,1.042,1.042,0,0,1,.775,1.25l-4.319,18.417A1.041,1.041,0,0,1-1076.588,846.477Z" fill="#0482a6"/>
      </g>
      <g id="Grupo_209" data-name="Grupo 209" transform="translate(1986.821 6941.76) rotate(26)">
        <line id="Línea_3-2" data-name="Línea 3" x1="2.813" y2="12.811" transform="translate(-1082.37 837.608)" fill="#0482a6"/>
        <path id="Trazado_68-2" data-name="Trazado 68" d="M-1082.369,851.459a1.014,1.014,0,0,1-.224-.025,1.04,1.04,0,0,1-.793-1.238l2.813-12.811a1.042,1.042,0,0,1,1.239-.793,1.039,1.039,0,0,1,.792,1.239l-2.812,12.811A1.041,1.041,0,0,1-1082.369,851.459Z" fill="#0482a6"/>
      </g>
    </g>
  </g>
</svg>
