<svg xmlns="http://www.w3.org/2000/svg" xmlns:xlink="http://www.w3.org/1999/xlink" width="104.985" height="44.61" viewBox="0 0 104.985 44.61">
  <defs>
    <clipPath id="clip-path">
      <path id="Trazado_13" data-name="Trazado 13" d="M74.879,1.364a2.535,2.535,0,0,1,2.764,2.382A3.15,3.15,0,0,1,74.4,7.032a2.686,2.686,0,0,1-2.875-2.464A3.243,3.243,0,0,1,74.879,1.364ZM44.016,12.49c-2.427,0-5.705,2.785-7.007,6.88,5.34-1.113,8.74-3.438,8.552-5.865C45.511,12.848,44.878,12.49,44.016,12.49Zm53.018,3.035A62.772,62.772,0,0,1,93.694,22.1a5.214,5.214,0,0,0-.982,3.085,3.582,3.582,0,0,0,3.7,2.731,3.765,3.765,0,0,0,3.762-4.35C99.938,20.434,98.447,18.105,97.034,15.526ZM87.825,0a1.991,1.991,0,0,1,2.21,1.77c.058.76-.55,2.074-1.643,4.107l-1.5,3.536h2.173a1.672,1.672,0,0,1,1.881,1.417c.078,1.064-.591,1.569-1.643,1.569H85.66c-1.988,5.11-3.614,10.268-3.38,13.353.123,1.618.932,2.275,2,2.275a3.318,3.318,0,0,0,2.579-1.972,2.087,2.087,0,0,1,1.261-1.162A14.561,14.561,0,0,1,89.862,21.3a67.811,67.811,0,0,0,4.851-10.679l-.058-.706C94.4,6.576,96.4,4.247,98.27,4.247c1.721,0,2.7.912,2.8,2.177.07.912-.518,2.464-1.709,4.806,1.442,3.639,5.229,7.533,5.582,12.137.333,4.35-2.464,7.689-8.215,7.689-3.631,0-6.194-1.162-7.549-2.814A6.436,6.436,0,0,1,84,31.056c-2.912,0-5.068-1.2-5.989-3.545-2.054,2.124-4.378,3.545-6.909,3.545-2.781,0-4.88-1.191-5.75-3.565-2.054,2.136-4.395,3.565-6.933,3.565-3.085,0-5.319-1.343-6.136-3.968a16.432,16.432,0,0,1-11.061,3.968c-4.863,0-8.141-1.68-9.381-4.793-3.754,3.1-9.04,4.793-14.93,4.793a11.357,11.357,0,0,1-5.8-1.166,3.013,3.013,0,0,1-1.729-2.124,1.643,1.643,0,0,1,1.643-1.82c.76,0,.986.3,2.013,1.162a3.7,3.7,0,0,0,2.464.912c4.4,0,8.256-6.473,7.8-12.322-.168-1.84-1.06-2.966-2.362-2.966-2.124,0-5.508,3.339-7.578,6.071A36.83,36.83,0,0,0,8.245,29.536l-3.6,12.495C4.166,43.7,3.682,44.61,2.113,44.61A2.148,2.148,0,0,1-.011,42.737,3.146,3.146,0,0,1,.149,41.5c2.51-8.934,6.769-22.742,9.172-29.667a2.76,2.76,0,0,1,2.666-2.177,2,2,0,0,1,2.156,1.77,4.011,4.011,0,0,1-.526,1.721L13,14.922c2.649-3.035,5.886-5.516,8.63-5.516,3.894,0,6.506,2.378,6.81,6.375A15.078,15.078,0,0,1,24,27.281a14.839,14.839,0,0,0,7.315-5.7c.768-7.13,7.459-12.174,12.733-12.174,3.84,0,6.186,1.569,6.4,4.35.3,3.9-5.75,7.64-13.99,8.851a8.786,8.786,0,0,0,.037,1.166c.177,2.514,2.3,3.894,4.974,3.894a12.014,12.014,0,0,0,10.8-6.219,61.737,61.737,0,0,1,2.748-9.036H53.467c-1.109,0-1.852-.456-1.935-1.516s.6-1.47,1.709-1.47h2.933l2.239-5.105C59.837,1.064,61.189,0,62.232,0a1.991,1.991,0,0,1,2.21,1.77c.058.76-.55,2.074-1.643,4.107L61.3,9.414h2.173a1.672,1.672,0,0,1,1.881,1.417c.078,1.064-.591,1.569-1.643,1.569H60.067c-1.984,5.11-3.614,10.268-3.38,13.353.127,1.668.99,2.325,2.1,2.325,2.054,0,4.469-3.052,6.444-6.473a39.107,39.107,0,0,1,2.625-7.89c1.47-3.286,2.657-4.3,3.972-4.3a1.9,1.9,0,0,1,2.054,1.721c.062.821-.489,2.226-2.173,5.311-1.446,3.59-2.329,6.625-2.136,9.106.136,1.82.949,2.526,1.91,2.526,2.054,0,4.411-2.982,6.371-6.354a60.275,60.275,0,0,1,2.8-9.324H79.084c-1.113,0-1.852-.456-1.935-1.516s.6-1.47,1.709-1.47h2.933L84.03,4.309C85.422,1.064,86.765,0,87.825,0Z" transform="translate(0.018)" fill="none"/>
    </clipPath>
    <clipPath id="clip-path-2">
      <rect id="Rect치ngulo_10" data-name="Rect치ngulo 10" width="171.688" height="176.616" fill="none"/>
    </clipPath>
  </defs>
  <g id="Capa_2" data-name="Capa 2" transform="translate(-9.982 -10)">
    <g id="Capa_1" data-name="Capa 1" transform="translate(9.982 10)">
      <g id="Grupo_17" data-name="Grupo 17" clip-path="url(#clip-path)">
        <g id="Grupo_16" data-name="Grupo 16" transform="translate(-29.044 -79.863)" clip-path="url(#clip-path-2)">
          <rect id="Rect치ngulo_9" data-name="Rect치ngulo 9" width="113.17" height="52.825" transform="translate(24.944 75.756)" fill="#0482a6"/>
        </g>
      </g>
    </g>
  </g>
</svg>
