<svg xmlns="http://www.w3.org/2000/svg" width="112.021" height="54.945" viewBox="0 0 112.021 54.945">
  <g id="Grupo_120" data-name="Grupo 120" transform="translate(-35.045 -107.297)">
    <path id="Trazado_77" data-name="Trazado 77" d="M76.412,131.281a2.38,2.38,0,0,1,2.457,1.993,2.114,2.114,0,0,1-.279,1.247c-4.072,7.039-12.675,11.027-22.7,11.027-3.239,0-5.391-.437-7.149-1.435-1.37-.809-2.065-1.744-2.131-2.616a2.029,2.029,0,0,1,2.01-2.242c.933,0,1.212.375,2.476,1.433a4.551,4.551,0,0,0,3.014,1.121c5.419,0,10.168-7.974,9.616-15.2-.172-2.244-1.273-3.614-2.892-3.614-2.617,0-6.788,4.111-9.334,7.476a44.553,44.553,0,0,0-6.281,13.206l-4.431,15.387c-.59,2.056-1.19,3.177-3.121,3.177a2.643,2.643,0,0,1-2.606-2.3,3.865,3.865,0,0,1,.2-1.5c3.083-11.027,8.325-28.033,11.286-36.567a3.407,3.407,0,0,1,3.284-2.679,2.43,2.43,0,0,1,2.658,2.179,5.049,5.049,0,0,1-.647,2.119l-.769,2.181c3.266-3.737,7.268-6.79,10.633-6.79,4.8,0,8.011,2.927,8.386,7.848a18.55,18.55,0,0,1-5.461,14.141c3.749-1.493,7.3-3.923,9.219-7.351C74.552,132.216,75.228,131.281,76.412,131.281Z" fill="#0482a6"/>
    <path id="Trazado_78" data-name="Trazado 78" d="M102.142,131.281a2.382,2.382,0,0,1,2.458,1.993,2.137,2.137,0,0,1-.279,1.247c-3.727,6.665-9.935,11.027-18.532,11.027-7.351,0-11.763-3.116-12.2-8.785-.785-10.279,8.539-17.878,15.7-17.878,4.734,0,7.623,1.93,7.884,5.357.367,4.8-7.068,9.407-17.233,10.9A10.547,10.547,0,0,0,80,136.576c.237,3.114,2.858,4.8,6.16,4.8a14.821,14.821,0,0,0,13.417-7.851C100.282,132.216,100.958,131.281,102.142,131.281Zm-21.5-.125c6.561-1.37,10.765-4.235,10.537-7.225-.062-.81-.843-1.247-1.9-1.247C86.285,122.684,82.248,126.11,80.641,131.156Z" fill="#0482a6"/>
    <path id="Trazado_79" data-name="Trazado 79" d="M118.154,131.281a2.381,2.381,0,0,1,2.457,1.993,2.136,2.136,0,0,1-.278,1.247c-3.353,5.855-8,11.027-13.361,11.027-4.548,0-7.6-2.368-7.947-6.979-.285-3.737,1.549-9.9,3.823-16.01h-1.931c-1.37,0-2.286-.56-2.385-1.868-.1-1.246.735-1.806,2.1-1.806h3.614l2.759-6.293c1.751-3.986,3.395-5.3,4.7-5.3a2.452,2.452,0,0,1,2.721,2.181c.071.935-.677,2.554-2.044,5.046l-1.848,4.361h2.679c1.371,0,2.237.746,2.314,1.744.1,1.309-.725,1.93-2.033,1.93h-4.486c-2.447,6.293-4.453,12.648-4.163,16.447.157,2.056,1.216,2.865,2.586,2.865,2.616,0,5.677-3.986,8.147-8.348C116.294,132.216,116.971,131.281,118.154,131.281Z" fill="#0482a6"/>
    <path id="Trazado_80" data-name="Trazado 80" d="M122.609,145.548c-4.3,0-7.278-2.307-7.63-6.916-.319-4.174,1.716-10.155,3.63-14.452,1.808-4.049,3.271-5.295,4.891-5.295A2.336,2.336,0,0,1,126.029,121c.076,1-.6,2.74-2.678,6.541-1.78,4.423-2.865,8.16-2.632,11.214.171,2.241,1.173,3.113,2.356,3.113,2.617,0,5.676-3.986,8.146-8.348.71-1.307,1.387-2.242,2.57-2.242a2.381,2.381,0,0,1,2.457,1.993,2.129,2.129,0,0,1-.279,1.247C132.616,140.376,127.965,145.548,122.609,145.548Zm4.681-36.569a3.119,3.119,0,0,1,3.4,2.929,3.879,3.879,0,0,1-3.99,4.049,3.3,3.3,0,0,1-3.535-3.053C123.01,110.848,124.986,108.979,127.29,108.979Z" fill="#0482a6"/>
    <path id="Trazado_81" data-name="Trazado 81" d="M142.01,139.381a2.32,2.32,0,0,1,2.067-1.5,1.707,1.707,0,0,1,1.739,1.557c.157,2.055-2.9,6.106-7.322,6.106-4.547,0-7.593-2.368-7.945-6.979-.285-3.737,1.548-9.9,3.822-16.01H132.44c-1.37,0-2.285-.56-2.385-1.868-.095-1.246.735-1.806,2.1-1.806h3.614l2.759-6.293c1.751-3.986,3.4-5.3,4.7-5.3a2.452,2.452,0,0,1,2.72,2.181c.071.935-.677,2.554-2.044,5.046l-1.848,4.361h2.679c1.371,0,2.238.746,2.315,1.744.1,1.309-.726,1.93-2.034,1.93h-4.485c-2.448,6.293-4.454,12.648-4.164,16.447.152,1.993,1.149,2.8,2.457,2.8A4.052,4.052,0,0,0,142.01,139.381Z" fill="#0482a6"/>
  </g>
</svg>
