<svg xmlns="http://www.w3.org/2000/svg" xmlns:xlink="http://www.w3.org/1999/xlink" width="1947.998" height="1778.32" viewBox="0 0 1947.998 1778.32">
  <defs>
    <clipPath id="clip-path">
      <path id="Trazado_34" data-name="Trazado 34" d="M26.633,71.741A27.382,27.382,0,0,1,2.819,41.159c.09-.638.208-1.269.319-1.873A27,27,0,0,1,8.757,27.494c.042,0,.076-.069.111-.1a22.106,22.106,0,0,1,16.606-4.582,21.474,21.474,0,0,1,6.376,1.811l.139.055a21.666,21.666,0,0,1,6.126,4.233c.264.226.458.425.653.617A21.575,21.575,0,0,1,44.51,47.182a1.3,1.3,0,0,0,2.57.336,24.128,24.128,0,0,0-6.452-19.743,7.3,7.3,0,0,0-.75-.686,24.024,24.024,0,0,0-6.945-4.754l-.125-.048A24.2,24.2,0,0,0,25.772,20.3a25.573,25.573,0,0,0-3.223-.206,24.6,24.6,0,0,0-5.535.59A27.689,27.689,0,0,1,33.752,17.63,27.069,27.069,0,0,1,41.739,19.9l.16.062a27.139,27.139,0,0,1,7.7,5.33c.313.274.556.521.806.768a27.025,27.025,0,0,1,4.388,31.1A27.708,27.708,0,0,1,26.633,71.741ZM60.171,48.52a29.553,29.553,0,0,0-7.9-24.229c-.319-.322-.611-.611-.91-.864a29.268,29.268,0,0,0-8.487-5.838,1.016,1.016,0,0,0-.153-.062,29.629,29.629,0,0,0-8.633-2.435,30.756,30.756,0,0,0-3.959-.254,30.312,30.312,0,0,0-18.884,6.6,2.03,2.03,0,0,0-.181.171A29.7,29.7,0,0,0,.589,38.806c-.125.686-.243,1.338-.333,2.017a29.912,29.912,0,0,0,26.061,33.44A30.142,30.142,0,0,0,60.172,48.52ZM71.978,44.7a11.315,11.315,0,0,1-5.119-7.2c-3.57-13.96-11.14-22.94-22.474-26.692a41.853,41.853,0,0,0-21.891-.748c7.64-4.322,19.37-8.973,31.19-6.983,12.862,2.168,23.266,11.6,30.926,28.043a11.532,11.532,0,0,1,.285,9.789,8.305,8.305,0,0,1-5.375,4.569,9.69,9.69,0,0,1-7.528-.782Zm8.237,3.245a10.886,10.886,0,0,0,7.035-6,14.11,14.11,0,0,0-.285-11.936C78.93,12.759,67.88,2.833,54.122.514A38.4,38.4,0,0,0,47.837,0C30.141,0,14.431,11.71,12,14.193a1.271,1.271,0,0,0,0,1.726,1.31,1.31,0,0,0,1.74.16c3.132-2.442,17.043-7.059,29.815-2.847C53.976,16.663,61,25.066,64.394,38.127a13.912,13.912,0,0,0,6.334,8.788A12.2,12.2,0,0,0,80.215,47.944Z" transform="translate(0 0)" fill="none" stroke="#008bb0" stroke-miterlimit="10" stroke-width="0.5"/>
    </clipPath>
    <clipPath id="clip-path-2">
      <rect id="Rectángulo_26" data-name="Rectángulo 26" width="290.304" height="294.976" transform="translate(0 0)" fill="none" stroke="#008bb0" stroke-miterlimit="10" stroke-width="0.5"/>
    </clipPath>
    <clipPath id="clip-path-3">
      <path id="Trazado_37" data-name="Trazado 37" d="M8.334,4.167A4.167,4.167,0,1,0,4.167,8.334,4.167,4.167,0,0,0,8.334,4.167" transform="translate(0 0)" fill="#0482a6" stroke="#008bb0" stroke-miterlimit="10" stroke-width="0.5"/>
    </clipPath>
    <clipPath id="clip-path-4">
      <rect id="Rectángulo_30" data-name="Rectángulo 30" width="290.304" height="298.638" transform="translate(0 0)" fill="#0482a6" stroke="#008bb0" stroke-miterlimit="10" stroke-width="0.5"/>
    </clipPath>
    <clipPath id="clip-path-5">
      <path id="Trazado_40" data-name="Trazado 40" d="M10.89,5.424a5.452,5.452,0,1,0,0,.028" transform="translate(0 0)" fill="#0482a6" stroke="#008bb0" stroke-miterlimit="10" stroke-width="0.5"/>
    </clipPath>
  </defs>
  <g id="Grupo_119" data-name="Grupo 119" transform="translate(13.999 -4909)">
    <path id="Sustracción_1" data-name="Sustracción 1" d="M-1919.428,1671.387c-17.512-.731-26.98-1.155-27.061-1.159V35.987l.325-.012c27.184-.945,274.269-9.477,574.878-17.981C-1186.675,12.771-1019.1,8.609-873.21,5.623-690.894,1.892-542.179,0-431.2,0-49.225,0-1.445,22.195,1.368,31.737a3.461,3.461,0,0,1-.61,3.1,5.142,5.142,0,0,1-1.183,1.15V1573.379a193.018,193.018,0,0,0-19.78-4.373A206.622,206.622,0,0,0-54.718,1566c-18.116,0-34.628,2.675-49.078,7.951-11.179,4.081-22.952,8.795-34.993,14.009-9.636,4.173-19.464,8.674-29.212,13.379-15.916,7.681-26.315,13.345-27.448,13.965l-.01.006c-.038-.024-4.135-2.648-11.185-6.462a317.584,317.584,0,0,0-30.088-14.217,296.982,296.982,0,0,0-43.788-14.217,226.9,226.9,0,0,0-52.285-6.462,115.846,115.846,0,0,0-26.3,3.075,132.966,132.966,0,0,0-23.869,8.106,174.052,174.052,0,0,0-39.125,24.6,221.6,221.6,0,0,0-25.425,24.6c-5.858,6.665-9.035,11.136-9.066,11.181a188.763,188.763,0,0,0-25.991-15.1,170.859,170.859,0,0,0-26.754-10.38,111.892,111.892,0,0,0-30.828-4.718,114.083,114.083,0,0,0-31.036,4.718,178.558,178.558,0,0,0-27.212,10.38,198.5,198.5,0,0,0-26.659,15.1c-.037-.025-4.351-2.906-11.768-7.228-6.79-3.957-17.587-9.927-30.467-15.9a293.136,293.136,0,0,0-41.91-15.9c-16.668-4.8-32.178-7.228-46.1-7.228a218.885,218.885,0,0,0-44.8,5.019,313.612,313.612,0,0,0-39.065,11.043,313.62,313.62,0,0,0-38.1,16.062c-.051-.028-5.443-2.992-14.765-7.362-8.6-4.03-22.382-10.111-39.248-16.2a431.97,431.97,0,0,0-56.163-16.2,315.715,315.715,0,0,0-65.508-7.362c-4.111,0-8.222.1-12.217.3a316.288,316.288,0,0,0-68.3,11.481,437.891,437.891,0,0,0-58.06,20.736c-17.372,7.572-31.521,14.983-40.331,19.866-9.594,5.318-15.056,8.838-15.109,8.872-.068-.041-7.5-4.5-20.027-11.181-11.481-6.12-29.63-15.355-50.894-24.6a531.958,531.958,0,0,0-67.978-24.6,336.047,336.047,0,0,0-36.089-8.106,219.981,219.981,0,0,0-35.192-3.075c-20.782,0-45.925,2.174-74.728,6.462-23.042,3.43-48.465,8.214-75.564,14.217-45.71,10.127-80.5,20.253-81.954,20.679a309.285,309.285,0,0,0-37.691-16.223,305.769,305.769,0,0,0-38.466-11.154,208.708,208.708,0,0,0-43.86-5.07,143.69,143.69,0,0,0-22.406,1.688c-9.285,1.473-17.605,2.892-25.406,5.357a65.453,65.453,0,0,0-22.391,11.842c-7.446,6.067-14.117,14.229-20.393,24.952-6.8,11.624-13.155,26.24-19.416,44.686Z" transform="translate(1932.49 4909)" fill="#cfecf4"/>
    <g id="Grupo_110" data-name="Grupo 110" transform="matrix(0.899, -0.438, 0.438, 0.899, 515.445, 6277.286)">
      <path id="Trazado_57" data-name="Trazado 57" d="M-869.192,691.137a18.462,18.462,0,0,0,15.885-8.984,24.609,24.609,0,0,0,9.178,1.77,24.945,24.945,0,0,0,24.917-24.917A24.945,24.945,0,0,0-844,634.09,24.225,24.225,0,0,0-867.565,614.9a24.2,24.2,0,0,0-19.906,10.561,15.583,15.583,0,0,0-8.4-2.427,15.815,15.815,0,0,0-15.749,14.576A18.246,18.246,0,0,0-928.01,655.66a18.2,18.2,0,0,0,15.865,17.992,23.836,23.836,0,0,0,22.377,15.94,23.38,23.38,0,0,0,9.6-2.053A18.617,18.617,0,0,0-869.192,691.137Zm15.239-12.357a1.482,1.482,0,0,0-1.323.814,15.529,15.529,0,0,1-13.916,8.581,15.427,15.427,0,0,1-9.852-3.511,1.481,1.481,0,0,0-1.59-.18,20.515,20.515,0,0,1-9.134,2.145,20.844,20.844,0,0,1-19.846-14.781,1.481,1.481,0,0,0-1.316-1.054,15.224,15.224,0,0,1-14.116-15.135,15.257,15.257,0,0,1,14.9-15.174A1.481,1.481,0,0,0-908.692,639c0-.067,0-.132-.008-.2a12.842,12.842,0,0,1,12.832-12.816,12.692,12.692,0,0,1,7.9,2.737,1.479,1.479,0,0,0,1.19.29,1.478,1.478,0,0,0,1-.7,21.223,21.223,0,0,1,18.211-10.455A21.231,21.231,0,0,1-846.7,635.845a1.482,1.482,0,0,0,1.532,1.261c.144-.006.289-.016.432-.026.2-.013.4-.028.6-.028a21.979,21.979,0,0,1,21.954,21.954,21.979,21.979,0,0,1-21.954,21.954,21.759,21.759,0,0,1-9.2-2.043A1.477,1.477,0,0,0-853.953,678.78Z" transform="translate(928.01 -614.896)" fill="#0482a6"/>
      <path id="Trazado_58" data-name="Trazado 58" d="M-800.521,784.554c.127,0,.516-.818.645-.851.792-.2,1.019-1.3.814-2.093l-27.2-104.9a1.483,1.483,0,0,0-1.806-1.062,1.482,1.482,0,0,0-1.062,1.807l28.173,108.57C-800.789,786.682-801.174,784.547-800.521,784.554Z" transform="translate(831.063 -628.472)" fill="#0482a6"/>
      <path id="Trazado_59" data-name="Trazado 59" d="M-925.363,781.461c.622,0,.679,1.2.885.581l33.869-101.162a1.481,1.481,0,0,0-.941-1.872,1.481,1.481,0,0,0-1.872.941l-33.09,98.8c-.257.776-.092,2.381.684,2.638A1.47,1.47,0,0,0-925.363,781.461Z" transform="translate(998.255 -629.219)" fill="#0482a6"/>
      <path id="Trazado_60" data-name="Trazado 60" d="M-836.665,775.159a1.477,1.477,0,0,0,.239-.019,1.482,1.482,0,0,0,1.225-1.7l-10.225-62.984a1.481,1.481,0,0,0-1.7-1.225,1.481,1.481,0,0,0-1.225,1.7l10.224,62.985A1.483,1.483,0,0,0-836.665,775.159Z" transform="translate(882.151 -635.99)" fill="#0482a6"/>
      <path id="Trazado_61" data-name="Trazado 61" d="M-876.363,774.021a1.481,1.481,0,0,0,1.46-1.247l10.434-65.108a1.481,1.481,0,0,0-1.228-1.7,1.48,1.48,0,0,0-1.7,1.228L-877.828,772.3A1.481,1.481,0,0,0-876.6,774,1.432,1.432,0,0,0-876.363,774.021Z" transform="translate(934.302 -635.261)" fill="#0482a6"/>
      <path id="Trazado_62" data-name="Trazado 62" d="M-870.747,683.011A15.925,15.925,0,0,0-854.84,667.1,15.926,15.926,0,0,0-870.747,651.2c-.116,0-.232,0-.349,0a13.628,13.628,0,0,0-13.376-10.852h0a1.481,1.481,0,0,0-1.481,1.48,1.482,1.482,0,0,0,1.481,1.483,10.674,10.674,0,0,1,10.648,9.609,1.482,1.482,0,0,0,.543,1,1.477,1.477,0,0,0,1.093.32,13.125,13.125,0,0,1,1.442-.084A12.959,12.959,0,0,1-857.8,667.1a12.959,12.959,0,0,1-12.945,12.944,12.828,12.828,0,0,1-9.377-4.039,1.481,1.481,0,0,0-2.094-.053,1.481,1.481,0,0,0-.054,2.094A15.762,15.762,0,0,0-870.747,683.011Z" transform="translate(930.986 -620.589)" fill="#0482a6"/>
      <g id="Grupo_109" data-name="Grupo 109" transform="translate(29.779 136.598)">
        <g id="Grupo_108" data-name="Grupo 108" transform="translate(0)">
          <path id="Trazado_63" data-name="Trazado 63" d="M-859.042,835.963a22.071,22.071,0,0,0,6.473-1.844,1.058,1.058,0,0,0,.111-.043,22.079,22.079,0,0,0,6.368-4.426c.223-.194.444-.415.682-.658a22.615,22.615,0,0,0,5.941-18.381h0a22.67,22.67,0,0,0-25.377-19.572,22.674,22.674,0,0,0-19.547,25.374c.068.517.16,1.031.252,1.534A22.608,22.608,0,0,0-876.3,831a1.624,1.624,0,0,0,.139.131,22.539,22.539,0,0,0,14.153,5.021A23.061,23.061,0,0,0-859.042,835.963Zm-15.989-6.431a20.637,20.637,0,0,1-7.2-11.949c-.083-.456-.17-.937-.234-1.421a20.731,20.731,0,0,1,17.871-23.2,20.753,20.753,0,0,1,23.2,17.9h0a20.672,20.672,0,0,1-5.416,16.787c-.186.187-.369.374-.606.583a20.281,20.281,0,0,1-5.768,4.041,1.116,1.116,0,0,0-.12.046,20.136,20.136,0,0,1-5.989,1.72,20.627,20.627,0,0,1-15.612-4.382C-874.942,829.611-875,829.559-875.03,829.531Zm-1.2,1.525c-.014-.012-.029-.023-.044-.037Zm1.3-1.425-.032-.026Z" transform="translate(884.578 -790.848)" fill="#0482a6"/>
          <path id="Trazado_64" data-name="Trazado 64" d="M-857.493,837.687a17.979,17.979,0,0,0,5.274-1.5c.033-.011.064-.023.1-.037a17.981,17.981,0,0,0,5.185-3.6c.183-.16.363-.341.564-.543a18.439,18.439,0,0,0,4.844-14.989.966.966,0,0,0-1.088-.838.97.97,0,0,0-.838,1.088,16.491,16.491,0,0,1-4.317,13.393c-.147.148-.293.3-.489.47a16.2,16.2,0,0,1-4.6,3.222,1.042,1.042,0,0,0-.1.04,16.051,16.051,0,0,1-4.778,1.372,16.449,16.449,0,0,1-12.449-3.489,1.3,1.3,0,0,0-.143-.129.972.972,0,0,0-1.359.193.97.97,0,0,0,.1,1.283,1.477,1.477,0,0,0,.136.13,18.383,18.383,0,0,0,11.541,4.092A18.674,18.674,0,0,0-857.493,837.687ZM-871.5,833.7h0Z" transform="translate(876.826 -796.511)" fill="#0482a6"/>
          <path id="Trazado_65" data-name="Trazado 65" d="M-879.784,852.72c10.315-1.749,18.6-9.273,24.64-22.365h0a10.809,10.809,0,0,0,.22-9.057,8.182,8.182,0,0,0-5.3-4.528,9.05,9.05,0,0,0-7.112.775,10.518,10.518,0,0,0-4.752,6.664c-2.524,9.91-7.775,16.264-15.608,18.884-9.579,3.2-20-.326-22.35-2.207a.969.969,0,0,0-1.325.1.971.971,0,0,0,.019,1.329c1.818,1.883,13.588,10.779,26.854,10.79A28.107,28.107,0,0,0-879.784,852.72Zm-7.291-7.785c8.5-2.843,14.177-9.655,16.875-20.246a8.59,8.59,0,0,1,3.843-5.463,7.158,7.158,0,0,1,5.618-.584,6.269,6.269,0,0,1,4.052,3.473,8.88,8.88,0,0,1-.221,7.428c-5.751,12.473-13.557,19.627-23.2,21.262-8.863,1.5-17.633-2.031-23.38-5.316A31.039,31.039,0,0,0-887.076,844.935Zm31.059-14.986h0Z" transform="translate(920.329 -796.559)" fill="#0482a6"/>
          <ellipse id="Elipse_2" data-name="Elipse 2" cx="3.127" cy="3.127" rx="3.127" ry="3.127" transform="translate(52.174 9.499)" fill="#0482a6"/>
          <ellipse id="Elipse_3" data-name="Elipse 3" cx="4.077" cy="4.077" rx="4.077" ry="4.077" transform="translate(60.632 7.606)" fill="#0482a6"/>
        </g>
        <path id="Trazado_66" data-name="Trazado 66" d="M-896,831.868a.51.51,0,0,0,.433-.24.51.51,0,0,0-.163-.7,4.732,4.732,0,0,1-1.5-6.513.51.51,0,0,0-.163-.7.509.509,0,0,0-.7.162,5.709,5.709,0,0,0-.725,4.337,5.709,5.709,0,0,0,2.554,3.581A.512.512,0,0,0-896,831.868Z" transform="translate(951.974 -798.18)" fill="#0482a6"/>
      </g>
    </g>
    <g id="Grupo_104" data-name="Grupo 104" transform="translate(1427.519 6687.01) rotate(-166)">
      <g id="Capa_2" data-name="Capa 2" transform="translate(0 0)">
        <g id="Capa_1" data-name="Capa 1" transform="translate(0 0)">
          <g id="Grupo_43" data-name="Grupo 43" transform="translate(0)" clip-path="url(#clip-path)">
            <g id="Grupo_42" data-name="Grupo 42" transform="translate(-98.746 -175.168)" clip-path="url(#clip-path-2)">
              <rect id="Rectángulo_25" data-name="Rectángulo 25" width="102.336" height="88.218" transform="translate(91.8 168.342)" fill="#0482a6" stroke="#008bb0" stroke-miterlimit="10" stroke-width="0.5"/>
            </g>
            <rect id="Rectángulo_27" data-name="Rectángulo 27" width="290.304" height="294.976" transform="translate(-98.746 -175.168)" fill="none" stroke="#008bb0" stroke-miterlimit="10" stroke-width="0.5"/>
          </g>
          <path id="Trazado_35" data-name="Trazado 35" d="M26.633,71.741A27.382,27.382,0,0,1,2.819,41.159c.09-.638.208-1.269.319-1.873A27,27,0,0,1,8.757,27.494c.042,0,.076-.069.111-.1a22.106,22.106,0,0,1,16.606-4.582,21.474,21.474,0,0,1,6.376,1.811l.139.055a21.666,21.666,0,0,1,6.126,4.233c.264.226.458.425.653.617A21.575,21.575,0,0,1,44.51,47.182a1.3,1.3,0,0,0,2.57.336,24.128,24.128,0,0,0-6.452-19.743,7.3,7.3,0,0,0-.75-.686,24.024,24.024,0,0,0-6.945-4.754l-.125-.048A24.2,24.2,0,0,0,25.772,20.3a25.573,25.573,0,0,0-3.223-.206,24.6,24.6,0,0,0-5.535.59A27.689,27.689,0,0,1,33.752,17.63,27.069,27.069,0,0,1,41.739,19.9l.16.062a27.139,27.139,0,0,1,7.7,5.33c.313.274.556.521.806.768a27.025,27.025,0,0,1,4.388,31.1A27.708,27.708,0,0,1,26.633,71.741ZM60.171,48.52a29.553,29.553,0,0,0-7.9-24.229c-.319-.322-.611-.611-.91-.864a29.268,29.268,0,0,0-8.487-5.838,1.016,1.016,0,0,0-.153-.062,29.629,29.629,0,0,0-8.633-2.435,30.756,30.756,0,0,0-3.959-.254,30.312,30.312,0,0,0-18.884,6.6,2.03,2.03,0,0,0-.181.171A29.7,29.7,0,0,0,.589,38.806c-.125.686-.243,1.338-.333,2.017a29.912,29.912,0,0,0,26.061,33.44A30.142,30.142,0,0,0,60.172,48.52ZM71.978,44.7a11.315,11.315,0,0,1-5.119-7.2c-3.57-13.96-11.14-22.94-22.474-26.692a41.853,41.853,0,0,0-21.891-.748c7.64-4.322,19.37-8.973,31.19-6.983,12.862,2.168,23.266,11.6,30.926,28.043a11.532,11.532,0,0,1,.285,9.789,8.305,8.305,0,0,1-5.375,4.569,9.69,9.69,0,0,1-7.528-.782Zm8.237,3.245a10.886,10.886,0,0,0,7.035-6,14.11,14.11,0,0,0-.285-11.936C78.93,12.759,67.88,2.833,54.122.514A38.4,38.4,0,0,0,47.837,0C30.141,0,14.431,11.71,12,14.193a1.271,1.271,0,0,0,0,1.726,1.31,1.31,0,0,0,1.74.16c3.132-2.442,17.043-7.059,29.815-2.847C53.976,16.663,61,25.066,64.394,38.127a13.912,13.912,0,0,0,6.334,8.788A12.2,12.2,0,0,0,80.215,47.944Z" transform="translate(0 0)" fill="none" stroke="#008bb0" stroke-miterlimit="10" stroke-width="0.5" fill-rule="evenodd"/>
          <path id="Trazado_36" data-name="Trazado 36" d="M8.334,4.167A4.167,4.167,0,1,0,4.167,8.334,4.167,4.167,0,0,0,8.334,4.167" transform="translate(69.596 53.733)" fill="#0482a6" stroke="#707070" stroke-width="0.5" fill-rule="evenodd"/>
          <g id="Grupo_45" data-name="Grupo 45" transform="translate(69.596 53.733)" clip-path="url(#clip-path-3)">
            <rect id="Rectángulo_28" data-name="Rectángulo 28" width="290.304" height="298.638" transform="translate(-168.342 -231.826)" fill="#0482a6" stroke="#707070" stroke-width="0.5"/>
            <g id="Grupo_44" data-name="Grupo 44" transform="translate(-168.342 -231.826)" clip-path="url(#clip-path-4)">
              <rect id="Rectángulo_29" data-name="Rectángulo 29" width="22.231" height="22.231" transform="translate(161.39 224.881)" fill="#0482a6" stroke="#008bb0" stroke-miterlimit="10" stroke-width="0.5"/>
            </g>
            <rect id="Rectángulo_31" data-name="Rectángulo 31" width="290.304" height="298.638" transform="translate(-168.342 -231.826)" fill="none" stroke="#008bb0" stroke-miterlimit="10" stroke-width="0.5"/>
          </g>
          <path id="Trazado_38" data-name="Trazado 38" d="M8.334,4.167A4.167,4.167,0,1,0,4.167,8.334,4.167,4.167,0,0,0,8.334,4.167" transform="translate(69.596 53.733)" fill="none" stroke="#008bb0" stroke-miterlimit="10" stroke-width="0.5" fill-rule="evenodd"/>
          <path id="Trazado_39" data-name="Trazado 39" d="M10.89,5.424a5.452,5.452,0,1,0,0,.028" transform="translate(80.86 53.573)" fill="#0482a6" stroke="#707070" stroke-width="0.5" fill-rule="evenodd"/>
          <g id="Grupo_47" data-name="Grupo 47" transform="translate(80.86 53.573)" clip-path="url(#clip-path-5)">
            <rect id="Rectángulo_32" data-name="Rectángulo 32" width="290.304" height="298.638" transform="translate(-179.606 -231.84)" fill="#0482a6" stroke="#707070" stroke-width="0.5"/>
            <g id="Grupo_46" data-name="Grupo 46" transform="translate(-179.606 -231.84)" clip-path="url(#clip-path-4)">
              <rect id="Rectángulo_33" data-name="Rectángulo 33" width="24.766" height="24.766" transform="translate(172.675 224.881)" fill="#0482a6" stroke="#008bb0" stroke-miterlimit="10" stroke-width="0.5"/>
            </g>
            <rect id="Rectángulo_35" data-name="Rectángulo 35" width="290.304" height="298.638" transform="translate(-179.606 -231.84)" fill="none" stroke="#008bb0" stroke-miterlimit="10" stroke-width="0.5"/>
          </g>
          <path id="Trazado_41" data-name="Trazado 41" d="M10.89,5.424a5.452,5.452,0,1,0,0,.028" transform="translate(80.86 53.573)" fill="none" stroke="#008bb0" stroke-miterlimit="10" stroke-width="0.5" fill-rule="evenodd"/>
        </g>
      </g>
      <path id="Trazado_42" data-name="Trazado 42" d="M0,1.913A10.351,10.351,0,0,1,6.548.042,7.533,7.533,0,0,1,11.88,3.5" transform="translate(70.484 31.306)" fill="none" stroke="#008bb0" stroke-linecap="round" stroke-width="1"/>
    </g>
    <g id="Grupo_115" data-name="Grupo 115" transform="translate(1855.535 7489.024) rotate(77)">
      <g id="Grupo_111" data-name="Grupo 111">
        <line id="Línea_2" data-name="Línea 2" x1="4.319" y2="18.416" transform="translate(-1076.589 827.021)" fill="#0482a6"/>
        <path id="Trazado_67" data-name="Trazado 67" d="M-1076.588,846.477a1.023,1.023,0,0,1-.238-.028,1.04,1.04,0,0,1-.775-1.25l4.319-18.416a1.038,1.038,0,0,1,1.25-.775,1.042,1.042,0,0,1,.775,1.25l-4.319,18.417A1.041,1.041,0,0,1-1076.588,846.477Z" fill="#0482a6"/>
      </g>
      <g id="Grupo_112" data-name="Grupo 112">
        <line id="Línea_3" data-name="Línea 3" x1="2.813" y2="12.811" transform="translate(-1082.37 837.608)" fill="#0482a6"/>
        <path id="Trazado_68" data-name="Trazado 68" d="M-1082.369,851.459a1.014,1.014,0,0,1-.224-.025,1.04,1.04,0,0,1-.793-1.238l2.813-12.811a1.042,1.042,0,0,1,1.239-.793,1.039,1.039,0,0,1,.792,1.239l-2.812,12.811A1.041,1.041,0,0,1-1082.369,851.459Z" fill="#0482a6"/>
      </g>
      <g id="Grupo_114" data-name="Grupo 114">
        <g id="Grupo_113" data-name="Grupo 113">
          <path id="Trazado_69" data-name="Trazado 69" d="M-1080.948,786.985a33.887,33.887,0,0,1,6.243,21.7,2.6,2.6,0,0,1-.039.284,34,34,0,0,1-9.111,21.01c-.535.552-1.083,1.115-1.657,1.649a34.1,34.1,0,0,1-48.139-1.707,34.093,34.093,0,0,1,1.735-48.164h0a34.013,34.013,0,0,1,27.682-8.817c.505.079.969.156,1.4.259a33.2,33.2,0,0,1,10.985,3.916c.051.031.1.063.149.1a33.16,33.16,0,0,1,7.919,6.3A34.587,34.587,0,0,1-1080.948,786.985Zm3.331,21.454a31.015,31.015,0,0,0-8.3-22.928,30.277,30.277,0,0,0-7.344-5.821,1.535,1.535,0,0,1-.161-.106,30.493,30.493,0,0,0-9.989-3.519c-.464-.107-.852-.168-1.243-.231a31.087,31.087,0,0,0-25.272,8.064h0a31.212,31.212,0,0,0-1.587,44.037,31.177,31.177,0,0,0,44.011,1.559c.536-.5,1.047-1.027,1.533-1.528a31.037,31.037,0,0,0,8.315-19.262C-1077.65,808.642-1077.633,808.527-1077.617,808.439Zm2.875.491c0-.03,0-.059.006-.087Q-1074.738,808.888-1074.742,808.93Zm-2.881-.372,0-.062C-1077.621,808.518-1077.622,808.538-1077.623,808.558Z" fill="#0482a6"/>
          <path id="Trazado_70" data-name="Trazado 70" d="M-1080.86,797.378a27.642,27.642,0,0,1,5.092,17.7,2.339,2.339,0,0,1-.039.281,1.461,1.461,0,0,1-1.48,1.25,1.461,1.461,0,0,1-1.426-1.494,1.917,1.917,0,0,1,.033-.288,24.735,24.735,0,0,0-6.625-18.278,24.129,24.129,0,0,0-5.859-4.645,1.452,1.452,0,0,1-.14-.091,24.353,24.353,0,0,0-7.962-2.8c-.384-.089-.694-.137-1-.187a24.8,24.8,0,0,0-20.159,6.438,1.458,1.458,0,0,1-2.064-.074,1.452,1.452,0,0,1,.074-2.064,27.731,27.731,0,0,1,22.571-7.19c.423.067.8.129,1.159.213a27.086,27.086,0,0,1,8.942,3.191c.045.026.087.054.129.083a27.074,27.074,0,0,1,6.45,5.138A28.254,28.254,0,0,1-1080.86,797.378Zm5.068,17.8v0Z" fill="#0482a6"/>
          <path id="Trazado_71" data-name="Trazado 71" d="M-1078.8,760.922c11.595,16.236,11.012,38.416,10.3,42.286a1.46,1.46,0,0,1-1.61,1.186,1.455,1.455,0,0,1-1.286-1.53c.248-4.516-4.555-20.356-16.857-29.268-10.058-7.289-22.424-8.152-36.753-2.568a15.816,15.816,0,0,1-12.31.018,13.605,13.605,0,0,1-7.17-8.02,12.308,12.308,0,0,1,.9-10.44,16.26,16.26,0,0,1,11.272-7.656h0c21.293-4.072,37.75-.517,48.914,10.57A42.116,42.116,0,0,1-1078.8,760.922Zm7.3,29.9c-1.011-9.9-4.36-23.723-13.955-33.248-10.437-10.365-26.017-13.652-46.306-9.772a13.351,13.351,0,0,0-9.279,6.228,9.428,9.428,0,0,0-.7,7.995,10.771,10.771,0,0,0,5.63,6.362,12.923,12.923,0,0,0,10.044-.08c15.315-5.968,28.615-4.984,39.53,2.925C-1079.115,776.607-1074.287,784.229-1071.5,790.82Zm-60.535-44.455-.008-.012Z" fill="#0482a6"/>
          <circle id="Elipse_4" data-name="Elipse 4" cx="4.703" cy="4.703" r="4.703" transform="translate(-1154.262 770.841)" fill="#0482a6"/>
          <circle id="Elipse_5" data-name="Elipse 5" cx="6.132" cy="6.132" r="6.132" transform="translate(-1165.077 758.728)" fill="#0482a6"/>
        </g>
        <path id="Trazado_72" data-name="Trazado 72" d="M-1128.66,765.665a.738.738,0,0,1-.469-.168.739.739,0,0,1-.1-1.039,6.863,6.863,0,0,0,1.132-6.744,6.846,6.846,0,0,0-8.8-4.015.736.736,0,0,1-.949-.433.737.737,0,0,1,.433-.949,8.319,8.319,0,0,1,10.694,4.881,8.341,8.341,0,0,1-1.375,8.2A.737.737,0,0,1-1128.66,765.665Z" fill="#0482a6"/>
      </g>
    </g>
    <g id="Grupo_118" data-name="Grupo 118" transform="translate(359.542 6560.106) rotate(-9)">
      <g id="Grupo_117" data-name="Grupo 117" transform="translate(0)">
        <g id="Grupo_116" data-name="Grupo 116">
          <path id="Trazado_73" data-name="Trazado 73" d="M-786.272,1107.57a52.8,52.8,0,0,0,34.436-7.214,3.862,3.862,0,0,0,.362-.26,52.964,52.964,0,0,0,22.3-27.854c.371-1.138.747-2.3,1.066-3.483a53.124,53.124,0,0,0-37.421-65.051,53.114,53.114,0,0,0-65.064,37.477h0a52.991,52.991,0,0,0,8.023,44.545c.477.638.922,1.221,1.379,1.742a51.737,51.737,0,0,0,13.4,12.275,2.554,2.554,0,0,0,.244.135,51.726,51.726,0,0,0,14.451,6.313A54.028,54.028,0,0,0-786.272,1107.57Zm31.973-11.044a48.322,48.322,0,0,1-37.623,5.274,47.238,47.238,0,0,1-13.366-5.874,2.571,2.571,0,0,0-.262-.145,47.521,47.521,0,0,1-12.125-11.192c-.485-.561-.852-1.053-1.223-1.545a48.435,48.435,0,0,1-7.3-40.678h0a48.625,48.625,0,0,1,59.488-34.266,48.571,48.571,0,0,1,34.21,59.473c-.3,1.1-.651,2.19-.987,3.224a48.369,48.369,0,0,1-20.469,25.485C-754.046,1096.335-754.192,1096.441-754.3,1096.526Zm2.771,3.6q-.06.041-.116.072C-751.606,1100.176-751.566,1100.154-751.529,1100.128Zm-2.611-3.7-.084.05C-754.2,1096.465-754.168,1096.448-754.14,1096.432Z" transform="translate(883.116 -1001.868)" fill="#0482a6"/>
          <path id="Trazado_74" data-name="Trazado 74" d="M-784.687,1084.089a43.06,43.06,0,0,0,28.08-5.879,3.492,3.492,0,0,0,.357-.259,2.274,2.274,0,0,0,.643-2.948,2.275,2.275,0,0,0-3.1-.876,2.961,2.961,0,0,0-.373.254,38.539,38.539,0,0,1-30,4.193,37.627,37.627,0,0,1-10.665-4.685,2.128,2.128,0,0,0-.228-.127,37.921,37.921,0,0,1-9.659-8.924c-.4-.463-.694-.855-.988-1.244a38.641,38.641,0,0,1-5.819-32.453,2.275,2.275,0,0,0-1.606-2.788,2.264,2.264,0,0,0-2.788,1.605,43.2,43.2,0,0,0,6.539,36.321c.4.535.765,1.011,1.139,1.442a42.148,42.148,0,0,0,10.909,9.99,2.035,2.035,0,0,0,.209.117,42.152,42.152,0,0,0,11.773,5.139A43.833,43.833,0,0,0-784.687,1084.089Zm28.212-5.991-.008,0Z" transform="translate(895.907 -985.839)" fill="#0482a6"/>
          <path id="Trazado_75" data-name="Trazado 75" d="M-752.9,1116.135c30.808,4.14,60.927-12.821,65.739-16.622a2.276,2.276,0,0,0,.461-3.081,2.27,2.27,0,0,0-3.045-.656c-6.038,3.632-31.351,8.556-52.587-1.893-17.365-8.54-27.561-24.942-30.311-48.744-.823-7.108-4-13.131-8.942-16.964a21.194,21.194,0,0,0-16.269-4.032,19.174,19.174,0,0,0-13.72,8.85c-3.778,5.919-4.627,13.609-2.33,21.1h0c9.9,32.289,26.788,52.363,50.189,59.661A65.751,65.751,0,0,0-752.9,1116.135Zm46.493-11.73c-14.375,5.824-35.846,11.279-55.954,5-21.877-6.822-37.755-25.884-47.192-56.651-1.9-6.213-1.242-12.524,1.818-17.316a14.688,14.688,0,0,1,10.5-6.79,16.779,16.779,0,0,1,12.863,3.119c3.968,3.076,6.528,8.008,7.206,13.89,2.939,25.438,13.983,43.039,32.826,52.307C-731.53,1104.278-717.518,1105.374-706.411,1104.405Zm-105.322-50.98-.022,0Z" transform="translate(815.417 -988.492)" fill="#0482a6"/>
          <ellipse id="Elipse_6" data-name="Elipse 6" cx="7.327" cy="7.327" rx="7.327" ry="7.327" transform="translate(23.777 12.221)" fill="#0482a6"/>
          <ellipse id="Elipse_7" data-name="Elipse 7" cx="9.553" cy="9.553" rx="9.553" ry="9.553" transform="translate(0 4.853)" fill="#0482a6"/>
        </g>
      </g>
      <path id="Trazado_76" data-name="Trazado 76" d="M-754.419,1034.4l4.186,4.186,3.32-4.186,4.258,4.186,3.248-4.186,4.33,4.186,3.175-4.186" transform="translate(763.379 -982.117)" fill="none" stroke="#0482a6" stroke-linecap="round" stroke-linejoin="round" stroke-width="2"/>
    </g>
  </g>
</svg>
